<svg xmlns="http://www.w3.org/2000/svg" width="517.059" height="317.057" version="1.1" viewBox="0 0 517.059 317.057">
  <!-- Generator: Adobe Illustrator 28.7.10, SVG Export Plug-In . SVG Version: 1.2.0 Build 236)  -->
  <g>
    <g id="flaviviridae_virion">
      <g id="Layer_1">
        <path d="M210.043,127.968c8.297,47.168-24.877,92.425-74.098,101.084-49.219,8.658-95.848-22.56-104.146-69.727-8.298-47.172,24.877-92.426,74.096-101.084,49.221-8.66,95.848,22.556,104.148,69.728Z" fill="#e4c3a8" stroke="#231f20" stroke-width=".5"/>
        <path d="M106.158,164.804c-.516,7.216-.439,15.595-3.449,19.322-4.541,5.622-10.815,5.514-13.138,13.795-1.437,5.125,9.625,16.518,23.893,16.442s25.66-6.732,27.444-13.389c2.29-8.546-10.854-10.582-14.188-15.87-4.44-7.04-5.063-17.605,1.181-20.846,6.584-3.419,16.284,3.738,20.191,11.52,2.441,4.862-3.949,11.718,2.599,17.927,5.912,5.607,18.081-2.847,24.417-14.745,5.747-10.789,7.79-27.521-1.124-30.289-7.897-2.453-16.346,9.003-22.157,8.998-9.089-.007-12.688.666-14.755-12.46-1.833-11.641,7.285-14.279,17.993-15.141,7.232-.582,14.826,12.983,21.789,9.32,5.618-2.955,3.001-21.371-1.556-31.355-5.383-11.79-18.723-20.204-25.231-16.05-8.217,5.246-1.305,15.916-4.75,24.09-4.104,9.735-11.017,15.83-19.283,10.435-10.82-7.062-10.624-15.629-4.348-24.257,4.254-5.849,17.802-10.141,17.998-14.963.363-8.911-12.364-13.869-24.918-13.869-12.756,0-25.2,4.085-25.2,12.848,0,7.694,12.099,11.802,15.384,16.736,4.71,7.074,7.623,19.154-1.22,23.774-11.287,5.897-19.013-1.343-21.192-11.47-1.155-5.367,1.862-16.525-3.558-20.79-7.837-6.168-18.693,1.088-25.328,13.305-6.546,12.056-8.484,25.955,2.074,29.859,4.275,1.58,15.444-3.452,21.55-4.119,9.005-.984,17.437,2.453,17.214,11.666-.242,10.038-9.214,15.004-18.635,13.587-6.371-.958-17.513-13.106-22.107-11.351-8.218,3.14-4.481,22.104,1.332,32.56,5.26,9.462,17.663,19.837,24.689,15.952,4.106-2.271,1.903-14.835,3.939-22.187" fill="none" stroke="#309a4e" stroke-width="2.025"/>
        <g>
          <path d="M88.005,171.542c0,1.809-1.466,3.277-3.277,3.277s-3.277-1.468-3.277-3.277,1.468-3.277,3.277-3.277,3.277,1.466,3.277,3.277Z" fill="#98cacb" stroke="#231f20" stroke-width=".274"/>
          <path d="M85.72,173.052c-.073.036-.186.073-.339.111-.075.017-.157.032-.246.044s-.19.022-.302.028c-.471-.006-.842-.158-1.114-.457-.276-.289-.416-.681-.42-1.176.004-.506.155-.915.452-1.225.294-.313.696-.472,1.205-.476.349.009.608.066.778.172l-.128.436c-.064-.045-.149-.081-.255-.107-.11-.03-.242-.045-.396-.045-.353.004-.623.121-.81.349-.187.235-.28.524-.28.866.004.377.106.669.305.876.202.215.457.323.767.323.158,0,.293-.017.408-.052.114-.032.208-.066.28-.1l.097.431Z" fill="#231f20"/>
        </g>
        <path d="M109.785,169.446l.148.007c.187-.311.534-.512.921-.494.563.025,1,.503.975,1.066s-.503,1-1.066.975c-.388-.017-.715-.249-.874-.575l-.148-.007c-.187.311-.534.512-.921.494s-.715-.249-.874-.575l-2.261-.101.044-.972,2.261.101c.187-.311.534-.512.921-.494s.715.249.874.575Z" fill="none" stroke="#0ea34a" stroke-width=".546"/>
        <path d="M88.011,176.665l.136.006c.171-.284.489-.468.843-.453.516.023.915.46.892.976s-.46.915-.976.892c-.355-.016-.654-.228-.8-.526l-.136-.006c-.171.284-.489.468-.843.453s-.655-.228-.8-.526l-2.07-.093.04-.889,2.07.093c.171-.284.489-.468.843-.453s.655.228.8.526Z" fill="none" stroke="#0ea34a" stroke-width=".5"/>
        <path d="M109.499,175.811l3.744.168c.187-.311.534-.512.921-.494.563.025,1,.503.975,1.066s-.503,1-1.066.975c-.388-.017-.715-.249-.874-.575l-3.744-.168c-.187.311-.534.512-.921.494s-.715-.249-.873-.575l-2.261-.101.044-.972,2.261.101c.187-.311.534-.512.921-.494s.715.249.874.575Z" fill="none" stroke="#0ea34a" stroke-width=".546"/>
        <path d="M109.977,165.155l.148.007c.187-.31.534-.512.921-.494s.715.249.874.575l4.133.185c.187-.31.534-.511.921-.494.564.025,1,.502.975,1.066-.016.347-.202.645-.475.817l-.09,2.019c.256.196.415.51.4.856-.025.564-.502,1-1.066.975s-1-.502-.975-1.066c.019-.426.296-.779.674-.915l.081-1.806c-.214-.1-.386-.27-.488-.481l-4.133-.185c-.187.311-.534.512-.921.494s-.715-.249-.874-.575l-.148-.007c-.187.311-.534.512-.921.494s-.715-.249-.874-.575l-2.261-.101.044-.972,2.261.101c.187-.31.534-.512.921-.494s.715.249.874.575Z" fill="none" stroke="#0ea34a" stroke-width=".546"/>
      </g>
      <g id="Layer_10">
        <path d="M483.984,128.148c9.084,51.628-25.571,100.873-77.404,109.992-51.829,9.116-101.209-25.346-110.293-76.972-9.081-51.629,25.573-100.874,77.403-109.992,51.833-9.118,101.212,25.343,110.294,76.972Z" fill="#b2d0e0" stroke="#231f20" stroke-width=".5"/>
      </g>
      <g id="Layer_3">
        <path d="M113.893,49.339c-51.086,0-92.499,42.019-92.499,93.853s41.413,93.853,92.499,93.853,92.499-42.019,92.499-93.853-41.413-93.853-92.499-93.853ZM113.865,223.752c-43.852,0-79.4-36.069-79.4-80.562S70.013,62.629,113.865,62.629s79.4,36.069,79.4,80.562-35.549,80.562-79.4,80.562Z" fill="#b2d0e0" stroke="#231f20" stroke-width=".491"/>
      </g>
      <g id="CP">
        <g id="highlight:flaviviridae_genome:CP">
          <g id="css:colorshift">
            <g>
              <path d="M114.683,71.978v.126c3.095.051,6.855.311,9.753.75,1.934-1.205,3.583-2.76,4.869-4.561l.447-1.69-.171-.661c-.645-.9-1.388-1.739-2.214-2.506-3.143-.719-5.976-1.242-8.345-1.542-1.465.075-2.925.118-4.262.124l-.077,9.959Z" fill="#977348" stroke="#231f20" stroke-width=".545"/>
              <path d="M99.689,67.532l.172.663c1.277,1.784,2.934,3.33,4.883,4.54,2.957-.394,6.789-.606,9.938-.619v-.012h0v-.126s.076-9.947.076-9.947c-1.161-.019-2.416-.068-3.684-.144-2.506.311-5.542.86-8.925,1.637-.74.716-1.419,1.488-2.012,2.319l-.448,1.689Z" fill="#977348" stroke="#231f20" stroke-width=".545"/>
            </g>
            <g>
              <path d="M114.562,215.445v-.126c-3.095-.051-6.855-.311-9.753-.75-1.934,1.205-3.583,2.76-4.869,4.561l-.447,1.69.171.661c.645.9,1.388,1.739,2.214,2.506,3.143.719,5.976,1.242,8.345,1.542,1.465-.075,2.925-.118,4.262-.124l.077-9.959Z" fill="#977348" stroke="#231f20" stroke-width=".545"/>
              <path d="M129.556,219.891l-.172-.663c-1.277-1.784-2.934-3.33-4.883-4.54-2.957.394-6.789.606-9.938.619v.012h0v.126s-.076,9.947-.076,9.947c1.161.019,2.416.068,3.684.144,2.506-.311,5.542-.86,8.925-1.637.74-.716,1.419-1.488,2.012-2.319l.448-1.689Z" fill="#977348" stroke="#231f20" stroke-width=".545"/>
            </g>
            <g>
              <path d="M175.689,180.123l-.106-.067c-1.684,2.599-3.896,5.65-5.804,7.876-.002,2.278.443,4.501,1.289,6.546l1.196,1.274.651.205c1.105-.071,2.21-.256,3.298-.55,2.275-2.285,4.219-4.411,5.728-6.261.712-1.282,1.449-2.544,2.153-3.68l-8.406-5.341Z" fill="#977348" stroke="#231f20" stroke-width=".545"/>
              <path d="M187.403,169.762l-.653-.205c-2.19.138-4.379.724-6.438,1.736-1.233,2.717-3.083,6.079-4.74,8.757l.01.006h0l.106.067,8.397,5.333c.631-.974,1.337-2.013,2.074-3.048,1.064-2.29,2.206-5.156,3.34-8.436-.215-1.007-.51-1.992-.901-2.935l-1.195-1.275Z" fill="#977348" stroke="#231f20" stroke-width=".545"/>
            </g>
            <g>
              <path d="M175.854,109.215l-.112.058c1.409,2.757,2.945,6.199,3.919,8.964,1.972,1.141,4.12,1.867,6.313,2.157l1.701-.399.503-.461c.492-.993.884-2.042,1.172-3.131-.841-3.113-1.71-5.859-2.558-8.091-.754-1.258-1.478-2.527-2.111-3.705l-8.829,4.609Z" fill="#977348" stroke="#231f20" stroke-width=".545"/>
              <path d="M172.737,93.89l-.504.463c-.975,1.965-1.562,4.154-1.715,6.443,1.737,2.426,3.723,5.709,5.214,8.483l.011-.006h0l.112-.058,8.816-4.605c-.528-1.034-1.075-2.165-1.603-3.32-1.451-2.067-3.362-4.489-5.636-7.11-.98-.317-1.98-.554-2.992-.687l-1.702.398Z" fill="#977348" stroke="#231f20" stroke-width=".545"/>
            </g>
            <g>
              <path d="M149.636,206.928l-.058-.112c-2.757,1.409-6.199,2.945-8.964,3.919-1.141,1.972-1.867,4.12-2.157,6.313l.399,1.701.461.503c.993.492,2.042.884,3.131,1.172,3.113-.841,5.859-1.71,8.091-2.558,1.258-.754,2.527-1.478,3.705-2.111l-4.609-8.829Z" fill="#977348" stroke="#231f20" stroke-width=".545"/>
              <path d="M164.961,203.812l-.463-.504c-1.965-.975-4.154-1.562-6.443-1.715-2.426,1.737-5.709,3.723-8.483,5.214l.006.011h0l.058.112,4.605,8.816c1.034-.528,2.165-1.075,3.32-1.603,2.067-1.451,4.489-3.362,7.11-5.636.317-.98.554-1.98.687-2.992l-.398-1.702Z" fill="#977348" stroke="#231f20" stroke-width=".545"/>
            </g>
            <g>
              <path d="M184.006,145.967l-.126-.005c-.159,3.092-.549,6.841-1.088,9.722,1.137,1.974,2.634,3.677,4.389,5.024l1.673.505.666-.148c.922-.614,1.786-1.326,2.581-2.126.828-3.116,1.448-5.929,1.83-8.286-.024-1.466-.017-2.928.024-4.264l-9.95-.423Z" fill="#977348" stroke="#231f20" stroke-width=".545"/>
              <path d="M188.97,131.137l-.668.149c-1.827,1.214-3.43,2.816-4.707,4.723.291,2.969.37,6.806.274,9.953h.012s.126.006.126.006l9.938.42c.059-1.159.152-2.412.272-3.677-.223-2.515-.667-5.568-1.326-8.976-.69-.765-1.438-1.47-2.248-2.091l-1.673-.506Z" fill="#977348" stroke="#231f20" stroke-width=".545"/>
            </g>
            <g>
              <path d="M147.548,81.553l-.067.106c2.599,1.684,5.65,3.896,7.876,5.804,2.278.002,4.501-.443,6.546-1.289l1.274-1.196.205-.651c-.071-1.105-.256-2.21-.55-3.298-2.285-2.275-4.411-4.219-6.261-5.728-1.282-.712-2.544-1.449-3.68-2.153l-5.341,8.406Z" fill="#977348" stroke="#231f20" stroke-width=".545"/>
              <path d="M137.186,69.839l-.205.653c.138,2.19.724,4.379,1.736,6.438,2.717,1.233,6.079,3.083,8.757,4.74l.006-.01h0l.067-.106,5.333-8.397c-.974-.631-2.013-1.337-3.048-2.074-2.29-1.064-5.156-2.206-8.436-3.34-1.007.215-1.992.51-2.935.901l-1.275,1.195Z" fill="#977348" stroke="#231f20" stroke-width=".545"/>
            </g>
            <g>
              <path d="M51.469,108.742l.106.067c1.684-2.599,3.896-5.65,5.804-7.876.002-2.278-.443-4.501-1.289-6.546l-1.196-1.274-.651-.205c-1.105.071-2.21.256-3.298.55-2.275,2.285-4.219,4.411-5.728,6.261-.712,1.282-1.449,2.544-2.153,3.68l8.406,5.341Z" fill="#977348" stroke="#231f20" stroke-width=".545"/>
              <path d="M39.755,119.103l.653.205c2.19-.138,4.379-.724,6.438-1.736,1.233-2.717,3.083-6.079,4.74-8.757l-.01-.006h0l-.106-.067-8.397-5.333c-.631.974-1.337,2.013-2.074,3.048-1.064,2.29-2.206,5.156-3.34,8.436.215,1.007.51,1.992.901,2.935l1.195,1.275Z" fill="#977348" stroke="#231f20" stroke-width=".545"/>
            </g>
            <g>
              <path d="M50.946,177.386l.112-.058c-1.409-2.757-2.945-6.199-3.919-8.964-1.972-1.141-4.12-1.867-6.313-2.157l-1.701.399-.503.461c-.492.993-.884,2.042-1.172,3.131.841,3.113,1.71,5.859,2.558,8.091.754,1.258,1.478,2.527,2.111,3.705l8.829-4.609Z" fill="#977348" stroke="#231f20" stroke-width=".545"/>
              <path d="M54.062,192.711l.504-.463c.975-1.965,1.562-4.154,1.715-6.443-1.737-2.426-3.723-5.709-5.214-8.483l-.011.006h0l-.112.058-8.816,4.605c.528,1.034,1.075,2.165,1.603,3.32,1.451,2.067,3.362,4.489,5.636,7.11.98.317,1.98.554,2.992.687l1.702-.398Z" fill="#977348" stroke="#231f20" stroke-width=".545"/>
            </g>
            <g>
              <path d="M77.523,81.937l.058.112c2.757-1.409,6.199-2.945,8.964-3.919,1.141-1.972,1.867-4.12,2.157-6.313l-.399-1.701-.461-.503c-.993-.492-2.042-.884-3.131-1.172-3.113.841-5.859,1.71-8.091,2.558-1.258.754-2.527,1.478-3.705,2.111l4.609,8.829Z" fill="#977348" stroke="#231f20" stroke-width=".545"/>
              <path d="M62.197,85.053l.463.504c1.965.975,4.154,1.562,6.443,1.715,2.426-1.737,5.709-3.723,8.483-5.214l-.006-.011h0l-.058-.112-4.605-8.816c-1.034.528-2.165,1.075-3.32,1.603-2.067,1.451-4.489,3.362-7.11,5.636-.317.98-.554,1.98-.687,2.992l.398,1.702Z" fill="#977348" stroke="#231f20" stroke-width=".545"/>
            </g>
            <g>
              <path d="M43.152,142.898l.126.005c.159-3.092.549-6.841,1.088-9.722-1.137-1.974-2.634-3.677-4.389-5.024l-1.673-.505-.666.148c-.922.614-1.786,1.326-2.581,2.126-.828,3.116-1.448,5.929-1.83,8.286.024,1.466.017,2.928-.024,4.264l9.95.423Z" fill="#977348" stroke="#231f20" stroke-width=".545"/>
              <path d="M38.188,157.728l.668-.149c1.827-1.214,3.43-2.816,4.707-4.723-.291-2.969-.37-6.806-.274-9.953h-.012s-.126-.006-.126-.006l-9.938-.42c-.059,1.159-.152,2.412-.272,3.677.223,2.515.667,5.568,1.326,8.976.69.765,1.438,1.47,2.248,2.091l1.673.506Z" fill="#977348" stroke="#231f20" stroke-width=".545"/>
            </g>
            <g>
              <path d="M79.61,207.312l.067-.106c-2.599-1.684-5.65-3.896-7.876-5.804-2.278-.002-4.501.443-6.546,1.289l-1.274,1.196-.205.651c.071,1.105.256,2.21.55,3.298,2.285,2.275,4.411,4.219,6.261,5.728,1.282.712,2.544,1.449,3.68,2.153l5.341-8.406Z" fill="#977348" stroke="#231f20" stroke-width=".545"/>
              <path d="M89.972,219.026l.205-.653c-.138-2.19-.724-4.379-1.736-6.438-2.717-1.233-6.079-3.083-8.757-4.74l-.006.01h0l-.067.106-5.333,8.397c.974.631,2.013,1.337,3.048,2.074,2.29,1.064,5.156,2.206,8.436,3.34,1.007-.215,1.992-.51,2.935-.901l1.275-1.195Z" fill="#977348" stroke="#231f20" stroke-width=".545"/>
            </g>
          </g>
        </g>
      </g>
      <g id="E">
        <g id="highlight:flaviviridae_genome:E">
          <g id="css:colorshift-2" data-name="css:colorshift">
            <path d="M502.394,133.489c-5.993,1.379-12.216-3.406-13.893-10.69l-2.829-18.671-5.572-17.902c-1.677-7.274-1.105-14.296,4.893-15.671h-2.935c6.005-1.38,13.066,3.878,16.406,11.123l6.116,17.882,5.653,18.251c1.679,7.274-1.841,14.3-7.84,15.678h0Z" fill="#ead244" stroke="#231f20" stroke-width=".25"/>
            <path d="M487.348,124.47c-5.994,1.379-12.319-3.859-14.126-11.699l-3.15-20.071-5.892-19.294c-1.805-7.831,1.6-15.303,7.596-16.678h0c6.006-1.381,12.328,3.853,14.136,11.697l3.064,19.69,5.98,19.67c1.807,7.831-1.608,15.306-7.608,16.686h0Z" fill="#ead244" stroke="#231f20" stroke-width=".25"/>
            <path d="M471.145,113.23c-5.993,1.378-12.353-3.995-14.192-12.002l-3.251-20.494-5.99-19.714c-1.839-7.998,1.534-15.607,7.529-16.981h0c6.004-1.382,12.359,3.988,14.204,12.001l3.159,20.102,6.079,20.098c1.847,7.998-1.538,15.611-7.538,16.99h0Z" fill="#ead244" stroke="#231f20" stroke-width=".25"/>
            <g>
              <path d="M345.989,242.839c1.802-5.881,9.058-8.876,16.203-6.686l17.585,6.884,18.29,4.127c7.138,2.184,12.932,6.19,11.125,12.072l1.468-2.541c-1.808,5.891-9.893,9.376-17.836,8.646l-18.544-3.643-18.634-4.23c-7.141-2.184-11.464-8.744-9.657-14.628h0Z" fill="#ead244" stroke="#231f20" stroke-width=".25"/>
              <path d="M361.322,234.317c1.803-5.88,9.502-8.739,17.195-6.383l18.955,7.307,19.656,4.544c7.684,2.353,12.453,9.036,10.645,14.916h0c-1.808,5.893-9.5,8.75-17.198,6.394l-18.582-7.191-20.024-4.655c-7.686-2.351-12.452-9.046-10.647-14.933h0Z" fill="#ead244" stroke="#231f20" stroke-width=".25"/>
              <path d="M379.159,225.906c1.802-5.879,9.636-8.701,17.489-6.291l19.374,7.433,20.067,4.669c7.847,2.406,12.749,9.131,10.941,15.011h0c-1.806,5.891-9.634,8.707-17.496,6.3l-18.988-7.316-20.443-4.785c-7.851-2.399-12.75-9.136-10.944-15.021h0Z" fill="#ead244" stroke="#231f20" stroke-width=".25"/>
              <path d="M497.395,194.203c3.719,4.29,1.86,9.895-3.526,18.218,0,0-3.659,6.557-17.938,18.074-8.761,7.067-21.626,14.03-21.626,14.03-9.385,3.969-13.567,6.281-17.283,1.986h0c-3.725-4.296-1.077-12.68,5.912-18.743l19.374-12.549,15.7-17.838c6.98-6.055,15.666-7.471,19.387-3.177h0Z" fill="#ead244" stroke="#231f20" stroke-width=".25"/>
              <path d="M489.219,190.495c2.972,5.057-1.298,13.078-9.536,17.903l-21.439,10.992-19.917,13.247c-8.231,4.82-17.31,4.637-20.269-.425h0c-2.972-5.06,1.295-13.068,9.541-17.902l21.045-10.757,20.306-13.478c8.226-4.823,17.305-4.636,20.27.42h0Z" fill="#ead244" stroke="#231f20" stroke-width=".25"/>
              <path d="M472.131,180.301c3.218,5.48-1.233,14.071-9.95,19.178l-22.686,11.598-21.053,14.044c-8.707,5.098-18.374,4.787-21.586-.697h0c-3.22-5.494,1.23-14.077,9.945-19.187l22.269-11.345,21.464-14.29c8.71-5.106,18.379-4.794,21.597.7h0Z" fill="#ead244" stroke="#231f20" stroke-width=".25"/>
              <path d="M515.518,148.921c-3.358,5.935-11.652,7.598-18.523,3.706l-16.521-11.169-17.957-8.358c-6.858-3.892-9.698-11.856-6.334-17.788h0c3.369-5.941,11.655-7.607,18.524-3.715l16.189,10.987,18.285,8.539c6.864,3.884,9.701,11.856,6.336,17.799h0Z" fill="#ead244" stroke="#231f20" stroke-width=".25"/>
              <path d="M514.421,171.013c-3.259,5.761-11.188,7.446-17.7,3.754l-15.658-10.629-17.046-7.895c-6.51-3.69-9.146-11.346-5.883-17.102h0c3.262-5.762,11.179-7.441,17.701-3.749l15.342,10.459,17.36,8.067c6.508,3.683,9.145,11.339,5.884,17.096h0Z" fill="#ead244" stroke="#231f20" stroke-width=".25"/>
              <path d="M507.075,189.554c-3.03,5.353-10.524,6.847-16.728,3.335l-14.935-10.095-16.225-7.56c-6.2-3.508-8.768-10.699-5.734-16.052h0c3.035-5.362,10.52-6.855,16.734-3.341l14.631,9.922,16.522,7.725c6.204,3.505,8.767,10.708,5.733,16.065h0Z" fill="#ead244" stroke="#231f20" stroke-width=".25"/>
              <g>
                <path d="M402.826,138.073c6.42-.079,11.712,7.125,11.814,16.084l-1.219,22.589,1.746,22.39c.103,8.952-5.016,16.275-11.434,16.345h0c-6.424.076-11.714-7.121-11.82-16.082l1.228-22.151-1.753-22.819c-.106-8.956,5.019-16.277,11.439-16.354h0Z" fill="#ead244" stroke="#231f20" stroke-width=".25"/>
                <path d="M425.248,126.478c6.225-.083,11.362,6.917,11.462,15.624l-1.181,21.952,1.69,21.758c.104,8.7-4.862,15.809-11.087,15.883h0c-6.229.076-11.359-6.92-11.46-15.631l1.193-21.533-1.705-22.17c-.106-8.7,4.863-15.812,11.087-15.883h0Z" fill="#ead244" stroke="#231f20" stroke-width=".25"/>
                <path d="M446.962,112.592c5.789-.067,10.567,6.82,10.671,15.385l-1.089,21.598,1.589,21.409c.1,8.56-4.514,15.556-10.305,15.62h0c-5.795.069-10.57-6.814-10.672-15.385l1.093-21.179-1.597-21.82c-.105-8.558,4.518-15.558,10.309-15.626h0Z" fill="#ead244" stroke="#231f20" stroke-width=".25"/>
              </g>
            </g>
            <path d="M384.571,26.685c1.856-5.366,7.639-6.559,17.54-6.056,0,0,7.509-.11,24.622,6.497,10.501,4.055,22.963,11.714,22.963,11.714,8.129,6.143,12.223,8.609,10.36,13.975h0c-1.858,5.372-10.441,7.274-19.187,4.251l-20.555-10.503-23.299-4.68c-8.733-3.015-14.303-9.831-12.444-15.199h0Z" fill="#ead244" stroke="#231f20" stroke-width=".25"/>
            <path d="M385.448,35.618c2.893-5.101,11.975-5.413,20.272-.694l20.239,13.073,21.429,10.625c8.291,4.719,12.672,12.672,9.767,17.767h0c-2.894,5.102-11.964,5.412-20.272.687l-19.839-12.847-21.826-10.846c-8.289-4.711-12.667-12.669-9.769-17.765h0Z" fill="#ead244" stroke="#231f20" stroke-width=".25"/>
            <path d="M385.163,55.515c3.139-5.527,12.805-5.968,21.586-.972l21.385,13.849,22.69,11.209c8.768,4.992,13.332,13.519,10.189,19.044h0c-3.148,5.533-12.808,5.973-21.59.979l-20.96-13.613-23.107-11.443c-8.777-4.99-13.341-13.52-10.193-19.053h0Z" fill="#ead244" stroke="#231f20" stroke-width=".25"/>
            <g>
              <path d="M327.724,53.027c4.191,4.5,3.158,12.282-2.312,17.376l-14.754,11.786-12.718,13.777c-5.459,5.088-11.827,8.104-16.017,3.598l1.466,2.541c-4.198-4.51-3.174-13.254,1.429-19.769l12.428-14.238,12.979-14.021c5.462-5.093,13.306-5.557,17.499-1.05h0Z" fill="#ead244" stroke="#231f20" stroke-width=".25"/>
              <path d="M327.437,70.567c4.191,4.5,2.817,12.597-3.069,18.082l-15.807,12.763-13.764,14.75c-5.878,5.478-14.051,6.267-18.24,1.761h0c-4.201-4.512-2.827-12.602,3.061-18.09l15.52-12.499,14.044-15.013c5.877-5.48,14.06-6.261,18.255-1.753h0Z" fill="#ead244" stroke="#231f20" stroke-width=".25"/>
              <path d="M325.804,90.218c4.19,4.501,2.717,12.695-3.298,18.293l-16.123,13.061-14.079,15.044c-6.006,5.593-14.281,6.476-18.47,1.97h0c-4.199-4.509-2.725-12.697,3.292-18.301l15.829-12.787,14.366-15.313c6.003-5.599,14.288-6.474,18.482-1.967h0Z" fill="#ead244" stroke="#231f20" stroke-width=".25"/>
              <path d="M294.14,208.466c-5.574,1.077-9.499-3.336-14.013-12.163,0,0-3.85-6.447-6.685-24.57-1.739-11.122-1.337-25.744-1.337-25.744,1.256-10.112,1.344-14.891,6.921-15.96h0c5.584-1.077,11.52,5.407,13.276,14.491l1.181,23.052,7.599,22.519c1.754,9.07-1.363,17.302-6.942,18.376h0Z" fill="#ead244" stroke="#231f20" stroke-width=".25"/>
              <path d="M301.44,203.24c-5.865.044-10.678-7.664-10.737-17.209l1.201-24.064-1.514-23.871c-.059-9.538,4.639-17.31,10.503-17.341h0c5.866-.042,10.669,7.656,10.732,17.214l-1.207,23.604,1.52,24.324c.065,9.535-4.637,17.305-10.499,17.344h0Z" fill="#ead244" stroke="#231f20" stroke-width=".25"/>
              <path d="M318.811,193.539c-6.354.045-11.568-8.104-11.633-18.207l1.301-25.445-1.638-25.253c-.061-10.09,5.042-18.306,11.398-18.347h0c6.365-.04,11.575,8.104,11.643,18.207l-1.311,24.958,1.644,25.733c.067,10.097-5.038,18.314-11.405,18.355h0Z" fill="#ead244" stroke="#231f20" stroke-width=".25"/>
              <path d="M324.294,246.801c-3.461-5.874-.753-13.889,6.053-17.892l17.933-8.725,16.216-11.371c6.8-3.994,15.117-2.471,18.572,3.407h0c3.461,5.887.759,13.898-6.044,17.901l-17.609,8.526-16.538,11.566c-6.797,4.002-15.118,2.474-18.582-3.414h0Z" fill="#ead244" stroke="#231f20" stroke-width=".25"/>
              <path d="M305.71,234.807c-3.359-5.701-.854-13.412,5.6-17.206l17.034-8.246,15.361-10.814c6.449-3.792,14.398-2.248,17.75,3.455h0c3.36,5.707.856,13.403-5.603,17.205l-16.727,8.057-15.668,11.001c-6.442,3.795-14.392,2.25-17.747-3.453h0Z" fill="#ead244" stroke="#231f20" stroke-width=".25"/>
              <path d="M293.326,219.173c-3.12-5.301-.667-12.537,5.477-16.155l16.21-7.886,14.657-10.27c6.14-3.617,13.651-2.246,16.769,3.059h0c3.125,5.31.677,12.538-5.474,16.162l-15.908,7.71-14.95,10.447c-6.139,3.619-13.657,2.238-16.781-3.068h0Z" fill="#ead244" stroke="#231f20" stroke-width=".25"/>
              <g>
                <path d="M390.036,154.632c-3.142,5.599-12.026,6.58-19.836,2.189l-18.955-12.349-20.263-9.684c-7.804-4.387-11.586-12.48-8.437-18.074h0c3.147-5.602,12.024-6.585,19.838-2.195l18.571,12.139,20.639,9.892c7.81,4.385,11.587,12.484,8.443,18.083h0Z" fill="#ead244" stroke="#231f20" stroke-width=".25"/>
                <path d="M388.866,179.847c-3.042,5.432-11.672,6.382-19.262,2.114l-18.421-11.998-19.687-9.414c-7.587-4.26-11.261-12.116-8.212-17.544h0c3.049-5.433,11.672-6.378,19.267-2.109l18.053,11.801,20.052,9.608c7.586,4.258,11.261,12.118,8.211,17.543h0Z" fill="#ead244" stroke="#231f20" stroke-width=".25"/>
                <path d="M390.034,205.597c-2.836,5.046-11.189,5.741-18.658,1.548l-18.159-11.742-19.336-9.328c-7.463-4.193-11.215-11.686-8.374-16.733h0c2.837-5.053,11.185-5.748,18.659-1.55l17.795,11.535,19.696,9.529c7.464,4.187,11.214,11.69,8.377,16.742h0Z" fill="#ead244" stroke="#231f20" stroke-width=".25"/>
              </g>
            </g>
            <path d="M336.295,33.632c6.816-.06,12.405,6.292,12.47,14.187l-1.412,19.893,1.739,19.727c.06,7.887-5.417,14.328-12.236,14.38h0c-6.83.055-12.416-6.291-12.48-14.185l1.422-19.513-1.749-20.104c-.067-7.888,5.417-14.33,12.247-14.386h0Z" fill="#ead244" stroke="#231f20" stroke-width=".25"/>
            <path d="M355.975,23.534c6.617-.06,12.041,5.967,12.101,13.453l-1.376,18.874,1.686,18.71c.059,7.482-5.254,13.593-11.868,13.645h0c-6.623.056-12.036-5.962-12.1-13.456l1.387-18.515-1.693-19.068c-.065-7.478,5.248-13.589,11.864-13.644h0Z" fill="#ead244" stroke="#231f20" stroke-width=".25"/>
            <path d="M375.706,20.626c6.151-.052,11.191,5.689,11.253,12.82l-1.275,17.98,1.565,17.83c.062,7.125-4.883,12.945-11.035,12.993h0c-6.16.052-11.196-5.685-11.259-12.821l1.276-17.633-1.572-18.171c-.065-7.125,4.891-12.947,11.047-12.998h0Z" fill="#ead244" stroke="#231f20" stroke-width=".25"/>
            <g>
              <path d="M383.245,136.648c-3.276-5.519.316-13.705,8.023-18.273l20.171-10.239,18.518-12.706c7.701-4.565,16.601-3.793,19.872,1.729h0c3.276,5.526-.31,13.706-8.019,18.277l-19.797,10.014-18.887,12.928c-7.702,4.57-16.604,3.793-19.882-1.73h0Z" fill="#ead244" stroke="#231f20" stroke-width=".25"/>
              <path d="M361.994,123.029c-3.185-5.35.31-13.3,7.8-17.739l19.601-9.952,17.998-12.344c7.481-4.44,16.123-3.694,19.298,1.662h0c3.183,5.355-.311,13.296-7.806,17.738l-19.244,9.733-18.349,12.561c-7.48,4.441-16.126,3.694-19.298-1.66h0Z" fill="#ead244" stroke="#231f20" stroke-width=".25"/>
              <path d="M339.109,111.165c-2.951-4.978.623-12.56,7.989-16.932l19.248-9.855,17.747-12.082c7.362-4.366,15.727-3.87,18.679,1.114h0c2.958,4.985-.614,12.562-7.987,16.935l-18.889,9.643-18.098,12.293c-7.359,4.371-15.733,3.867-18.689-1.116h0Z" fill="#ead244" stroke="#231f20" stroke-width=".25"/>
            </g>
            <g>
              <path d="M91.826,49.838c-1.089-3.58-10.652,1.208-10.844-5.495-.239-8.349,6.483-10.026,10.761-11.682,6.889-2.667,33.278-5.111,33.707,2.826.307,5.685-4.371,8.12-6.961,7.893-7.134-.624-14.283-4.042-19.85,1.862-.035.037.37,1.417,1.05,1.428,1.473.024,2.843.076,3.539.699,4.246,3.791,3.73,16.123.152,16.457-4.081.384-2.724-7.977-4.582-8.442-1.467-.363-2.184-1.664-1.439-2.96.338-.59.953-1.274,2.211-1.248,2.967-1.017,3.896,12.803,3.699,9.065-.301-5.699-1.613-11.206-5.281-9.38-3.297,1.639-5.664.613-6.162-1.023Z" fill="#ead244" stroke="#231f20" stroke-width=".471"/>
              <path d="M136.948,49.171c1.089-3.58,10.652,1.208,10.844-5.495.239-8.349-6.483-10.026-10.761-11.682-6.889-2.667-33.278-5.111-33.707,2.826-.307,5.685,4.371,8.12,6.961,7.893,7.134-.624,14.283-4.042,19.85,1.862.035.037-.37,1.417-1.05,1.428-1.473.024-2.843.076-3.539.699-4.246,3.791-3.73,16.123-.152,16.457,4.081.384,2.724-7.977,4.582-8.442,1.467-.363,2.184-1.664,1.439-2.96-.338-.59-.953-1.274-2.211-1.248-2.967-1.017-3.896,12.803-3.699,9.065.301-5.699,1.613-11.206,5.281-9.38,3.297,1.639,5.664.613,6.162-1.023Z" fill="#ead244" stroke="#231f20" stroke-width=".471"/>
            </g>
            <g>
              <path d="M48.427,75.096c-2.733-2.556-8.621,6.372-12.138.663-4.381-7.111.602-11.924,3.479-15.498,4.633-5.754,26.264-21.065,30.604-14.406,3.108,4.77.274,9.217-2.082,10.316-6.49,3.026-14.39,3.641-16.26,11.538-.012.049,1.029,1.043,1.623.712,1.288-.715,2.5-1.355,3.415-1.164,5.573,1.16,11.291,12.098,8.36,14.176-3.343,2.373-6.348-5.547-8.19-5.02-1.452.419-2.723-.349-2.726-1.844-.002-.68.188-1.58,1.291-2.186,2.062-2.364,9.776,9.139,7.736,6.001-3.111-4.785-7-8.898-9.263-5.483-2.036,3.068-4.599,3.363-5.848,2.195Z" fill="#ead244" stroke="#231f20" stroke-width=".471"/>
              <path d="M87.171,51.957c-.847-3.645,9.829-4.28,6.643-10.181-3.968-7.35-10.628-5.441-15.161-4.736-7.299,1.135-31.375,12.213-27.778,19.3,2.576,5.077,7.845,4.846,9.975,3.355,5.866-4.108,10.349-10.642,18.122-8.312.049.014.388,1.412-.195,1.762-1.264.758-2.424,1.487-2.715,2.375-1.782,5.406,4.832,15.828,8.097,14.328,3.727-1.708-1.63-8.271-.253-9.602,1.089-1.048,1.059-2.533-.234-3.283-.587-.342-1.463-.627-2.539.025-3.078.603,3.027,13.036,1.329,9.701-2.589-5.086-4.206-10.511-.117-10.764,3.675-.229,5.212-2.301,4.825-3.967Z" fill="#ead244" stroke="#231f20" stroke-width=".471"/>
            </g>
            <g>
              <path d="M22.983,117.499c-3.645-.847-4.28,9.829-10.181,6.643-7.35-3.968-5.441-10.628-4.736-15.161,1.135-7.299,12.213-31.375,19.3-27.778,5.077,2.576,4.846,7.845,3.355,9.975-4.108,5.866-10.642,10.349-8.312,18.122.014.049,1.412.388,1.762-.195.758-1.264,1.487-2.424,2.375-2.715,5.406-1.782,15.828,4.832,14.328,8.097-1.708,3.727-8.271-1.63-9.602-.253-1.048,1.089-2.533,1.059-3.283-.234-.342-.587-.627-1.463.025-2.539.603-3.078,13.036,3.027,9.701,1.329-5.086-2.589-10.511-4.206-10.764-.117-.229,3.675-2.301,5.212-3.967,4.825Z" fill="#ead244" stroke="#231f20" stroke-width=".471"/>
              <path d="M44.967,78.089c-2.556-2.733,6.372-8.621.663-12.138-7.111-4.381-11.924.602-15.498,3.479-5.754,4.633-21.065,26.264-14.406,30.604,4.77,3.108,9.217.274,10.316-2.082,3.026-6.49,3.641-14.39,11.538-16.26.049-.012,1.043,1.029.712,1.623-.715,1.288-1.355,2.5-1.164,3.415,1.16,5.573,12.098,11.291,14.176,8.36,2.373-3.343-5.547-6.348-5.02-8.19.419-1.452-.349-2.723-1.844-2.726-.68-.002-1.58.188-2.186,1.291-2.364,2.062,9.139,9.776,6.001,7.736-4.785-3.111-8.898-7-5.483-9.263,3.068-2.036,3.363-4.599,2.195-5.848Z" fill="#ead244" stroke="#231f20" stroke-width=".471"/>
            </g>
            <g>
              <path d="M21.411,164.734c-3.58,1.089,1.208,10.652-5.495,10.844-8.349.239-10.026-6.483-11.682-10.761-2.667-6.889-5.111-33.278,2.826-33.707,5.685-.307,8.12,4.371,7.893,6.961-.624,7.134-4.042,14.283,1.862,19.85.037.035,1.417-.37,1.428-1.05.024-1.473.076-2.843.699-3.539,3.791-4.246,16.123-3.73,16.457-.152.384,4.081-7.977,2.724-8.442,4.582-.363,1.467-1.664,2.184-2.96,1.439-.59-.338-1.274-.953-1.248-2.211-1.017-2.967,12.803-3.896,9.065-3.699-5.699.301-11.206,1.613-9.38,5.281,1.639,3.297.613,5.664-1.023,6.162Z" fill="#ead244" stroke="#231f20" stroke-width=".471"/>
              <path d="M20.744,119.612c-3.58-1.089,1.208-10.652-5.495-10.844-8.349-.239-10.026,6.483-11.682,10.761-2.667,6.889-5.111,33.278,2.826,33.707,5.685.307,8.12-4.371,7.893-6.961-.624-7.134-4.042-14.283,1.862-19.85.037-.035,1.417.37,1.428,1.05.024,1.473.076,2.843.699,3.539,3.791,4.246,16.123,3.73,16.457.152.384-4.081-7.977-2.724-8.442-4.582-.363-1.467-1.664-2.184-2.96-1.439-.59.338-1.274.953-1.248,2.211-1.017,2.967,12.803,3.896,9.065,3.699-5.699-.301-11.206-1.613-9.38-5.281,1.639-3.297.613-5.664-1.023-6.162Z" fill="#ead244" stroke="#231f20" stroke-width=".471"/>
            </g>
            <g>
              <path d="M44.682,207.19c-2.556,2.733,6.372,8.621.663,12.138-7.111,4.381-11.924-.602-15.498-3.479-5.754-4.633-21.065-26.264-14.406-30.604,4.77-3.108,9.217-.274,10.316,2.082,3.026,6.49,3.641,14.39,11.538,16.26.049.012,1.043-1.029.712-1.623-.715-1.288-1.355-2.5-1.164-3.415,1.16-5.573,12.098-11.291,14.176-8.36,2.373,3.343-5.547,6.348-5.02,8.19.419,1.452-.349,2.723-1.844,2.726-.68.002-1.58-.188-2.186-1.291-2.364-2.062,9.139-9.776,6.001-7.736-4.785,3.111-8.898,7-5.483,9.263,3.068,2.036,3.363,4.599,2.195,5.848Z" fill="#ead244" stroke="#231f20" stroke-width=".471"/>
              <path d="M21.543,168.447c-3.645.847-4.28-9.829-10.181-6.643-7.35,3.968-5.441,10.628-4.736,15.161,1.135,7.299,12.213,31.375,19.3,27.778,5.077-2.576,4.846-7.845,3.355-9.975-4.108-5.866-10.642-10.349-8.312-18.122.014-.049,1.412-.388,1.762.195.758,1.264,1.487,2.424,2.375,2.715,5.406,1.782,15.828-4.832,14.328-8.097-1.708-3.727-8.271,1.63-9.602.253-1.048-1.089-2.533-1.059-3.283.234-.342.587-.627,1.463.025,2.539.603,3.078,13.036-3.027,9.701-1.329-5.086,2.589-10.511,4.206-10.764.117-.229-3.675-2.301-5.212-3.967-4.825Z" fill="#ead244" stroke="#231f20" stroke-width=".471"/>
            </g>
            <g>
              <path d="M88.06,235.866c-.847,3.645,9.829,4.28,6.643,10.181-3.968,7.35-10.628,5.441-15.161,4.736-7.299-1.135-31.375-12.213-27.778-19.3,2.576-5.077,7.845-4.846,9.975-3.355,5.866,4.108,10.349,10.642,18.122,8.312.049-.014.388-1.412-.195-1.762-1.264-.758-2.424-1.487-2.715-2.375-1.782-5.406,4.832-15.828,8.097-14.328,3.727,1.708-1.63,8.271-.253,9.602,1.089,1.048,1.059,2.533-.234,3.283-.587.342-1.463.627-2.539-.025-3.078-.603,3.027-13.036,1.329-9.701-2.589,5.086-4.206,10.511-.117,10.764,3.675.229,5.212,2.301,4.825,3.967Z" fill="#ead244" stroke="#231f20" stroke-width=".471"/>
              <path d="M48.65,213.882c-2.733,2.556-8.621-6.372-12.138-.663-4.381,7.111.602,11.924,3.479,15.498,4.633,5.754,26.264,21.065,30.604,14.406,3.108-4.77.274-9.217-2.082-10.316-6.49-3.026-14.39-3.641-16.26-11.538-.012-.049,1.029-1.043,1.623-.712,1.288.715,2.5,1.355,3.415,1.164,5.573-1.16,11.291-12.098,8.36-14.176-3.343-2.373-6.348,5.547-8.19,5.02-1.452-.419-2.723.349-2.726,1.844-.002.68.188,1.58,1.291,2.186,2.062,2.364,9.776-9.139,7.736-6.001-3.111,4.785-7,8.898-9.263,5.483-2.036-3.068-4.599-3.363-5.848-2.195Z" fill="#ead244" stroke="#231f20" stroke-width=".471"/>
            </g>
            <g>
              <path d="M136.974,236.461c1.089,3.58,10.652-1.208,10.844,5.495.239,8.349-6.483,10.026-10.761,11.682-6.889,2.667-33.278,5.111-33.707-2.826-.307-5.685,4.371-8.12,6.961-7.893,7.134.624,14.283,4.042,19.85-1.862.035-.037-.37-1.417-1.05-1.428-1.473-.024-2.843-.076-3.539-.699-4.246-3.791-3.73-16.123-.152-16.457,4.081-.384,2.724,7.977,4.582,8.442,1.467.363,2.184,1.664,1.439,2.96-.338.59-.953,1.274-2.211,1.248-2.967,1.017-3.896-12.803-3.699-9.065.301,5.699,1.613,11.206,5.281,9.38,3.297-1.639,5.664-.613,6.162,1.023Z" fill="#ead244" stroke="#231f20" stroke-width=".471"/>
              <path d="M91.852,237.128c-1.089,3.58-10.652-1.208-10.844,5.495-.239,8.349,6.483,10.026,10.761,11.682,6.889,2.667,33.278,5.111,33.707-2.826.307-5.685-4.371-8.12-6.961-7.893-7.134.624-14.283,4.042-19.85-1.862-.035-.037.37-1.417,1.05-1.428,1.473-.024,2.843-.076,3.539-.699,4.246-3.791,3.73-16.123.152-16.457-4.081-.384-2.724,7.977-4.582,8.442-1.467.363-2.184,1.664-1.439,2.96.338.59.953,1.274,2.211,1.248,2.967,1.017,3.896-12.803,3.699-9.065-.301,5.699-1.613,11.206-5.281,9.38-3.297-1.639-5.664-.613-6.162,1.023Z" fill="#ead244" stroke="#231f20" stroke-width=".471"/>
            </g>
            <g>
              <path d="M180.372,213.204c2.733,2.556,8.621-6.372,12.138-.663,4.381,7.111-.602,11.924-3.479,15.498-4.633,5.754-26.264,21.065-30.604,14.406-3.108-4.77-.274-9.217,2.082-10.316,6.49-3.026,14.39-3.641,16.26-11.538.012-.049-1.029-1.043-1.623-.712-1.288.715-2.5,1.355-3.415,1.164-5.573-1.16-11.291-12.098-8.36-14.176,3.343-2.373,6.348,5.547,8.19,5.02,1.452-.419,2.723.349,2.726,1.844.002.68-.188,1.58-1.291,2.186-2.062,2.364-9.776-9.139-7.736-6.001,3.111,4.785,7,8.898,9.263,5.483,2.036-3.068,4.599-3.363,5.848-2.195Z" fill="#ead244" stroke="#231f20" stroke-width=".471"/>
              <path d="M141.629,236.342c.847,3.645-9.829,4.28-6.643,10.181,3.968,7.35,10.628,5.441,15.161,4.736,7.299-1.135,31.375-12.213,27.778-19.3-2.576-5.077-7.845-4.846-9.975-3.355-5.866,4.108-10.349,10.642-18.122,8.312-.049-.014-.388-1.412.195-1.762,1.264-.758,2.424-1.487,2.715-2.375,1.782-5.406-4.832-15.828-8.097-14.328-3.727,1.708,1.63,8.271.253,9.602-1.089,1.048-1.059,2.533.234,3.283.587.342,1.463.627,2.539-.025,3.078-.603-3.027-13.036-1.329-9.701,2.589,5.086,4.206,10.511.117,10.764-3.675.229-5.212,2.301-4.825,3.967Z" fill="#ead244" stroke="#231f20" stroke-width=".471"/>
            </g>
            <g>
              <path d="M204.817,170.134c3.645.847,4.28-9.829,10.181-6.643,7.35,3.968,5.441,10.628,4.736,15.161-1.135,7.299-12.213,31.375-19.3,27.778-5.077-2.576-4.846-7.845-3.355-9.975,4.108-5.866,10.642-10.349,8.312-18.122-.014-.049-1.412-.388-1.762.195-.758,1.264-1.487,2.424-2.375,2.715-5.406,1.782-15.828-4.832-14.328-8.097,1.708-3.727,8.271,1.63,9.602.253,1.048-1.089,2.533-1.059,3.283.234.342.587.627,1.463-.025,2.539-.603,3.078-13.036-3.027-9.701-1.329,5.086,2.589,10.511,4.206,10.764.117.229-3.675,2.301-5.212,3.967-4.825Z" fill="#ead244" stroke="#231f20" stroke-width=".471"/>
              <path d="M182.833,209.544c2.556,2.733-6.372,8.621-.663,12.138,7.111,4.381,11.924-.602,15.498-3.479,5.754-4.633,21.065-26.264,14.406-30.604-4.77-3.108-9.217-.274-10.316,2.082-3.026,6.49-3.641,14.39-11.538,16.26-.049.012-1.043-1.029-.712-1.623.715-1.288,1.355-2.5,1.164-3.415-1.16-5.573-12.098-11.291-14.176-8.36-2.373,3.343,5.547,6.348,5.02,8.19-.419,1.452.349,2.723,1.844,2.726.68.002,1.58-.188,2.186-1.291,2.364-2.062-9.139-9.776-6.001-7.736,4.785,3.111,8.898,7,5.483,9.263-3.068,2.036-3.363,4.599-2.195,5.848Z" fill="#ead244" stroke="#231f20" stroke-width=".471"/>
            </g>
            <g>
              <path d="M206.389,123.565c3.58-1.089-1.208-10.652,5.495-10.844,8.349-.239,10.026,6.483,11.682,10.761,2.667,6.889,5.111,33.278-2.826,33.707-5.685.307-8.12-4.371-7.893-6.961.624-7.134,4.042-14.283-1.862-19.85-.037-.035-1.417.37-1.428,1.05-.024,1.473-.076,2.843-.699,3.539-3.791,4.246-16.123,3.73-16.457.152-.384-4.081,7.977-2.724,8.442-4.582.363-1.467,1.664-2.184,2.96-1.439.59.338,1.274.953,1.248,2.211,1.017,2.967-12.803,3.896-9.065,3.699,5.699-.301,11.206-1.613,9.38-5.281-1.639-3.297-.613-5.664,1.023-6.162Z" fill="#ead244" stroke="#231f20" stroke-width=".471"/>
              <path d="M207.056,168.687c3.58,1.089-1.208,10.652,5.495,10.844,8.349.239,10.026-6.483,11.682-10.761,2.667-6.889,5.111-33.278-2.826-33.707-5.685-.307-8.12,4.371-7.893,6.961.624,7.134,4.042,14.283-1.862,19.85-.037.035-1.417-.37-1.428-1.05-.024-1.473-.076-2.843-.699-3.539-3.791-4.246-16.123-3.73-16.457-.152-.384,4.081,7.977,2.724,8.442,4.582.363,1.467,1.664,2.184,2.96,1.439.59-.338,1.274-.953,1.248-2.211,1.017-2.967-12.803-3.896-9.065-3.699,5.699.301,11.206,1.613,9.38,5.281-1.639,3.297-.613,5.664,1.023,6.162Z" fill="#ead244" stroke="#231f20" stroke-width=".471"/>
            </g>
            <g>
              <path d="M183.188,79.634c2.556-2.733-6.372-8.621-.663-12.138,7.111-4.381,11.924.602,15.498,3.479,5.754,4.633,21.065,26.264,14.406,30.604-4.77,3.108-9.217.274-10.316-2.082-3.026-6.49-3.641-14.39-11.538-16.26-.049-.012-1.043,1.029-.712,1.623.715,1.288,1.355,2.5,1.164,3.415-1.16,5.573-12.098,11.291-14.176,8.36-2.373-3.343,5.547-6.348,5.02-8.19-.419-1.452.349-2.723,1.844-2.726.68-.002,1.58.188,2.186,1.291,2.364,2.062-9.139,9.776-6.001,7.736,4.785-3.111,8.898-7,5.483-9.263-3.068-2.036-3.363-4.599-2.195-5.848Z" fill="#ead244" stroke="#231f20" stroke-width=".471"/>
              <path d="M206.327,118.378c3.645-.847,4.28,9.829,10.181,6.643,7.35-3.968,5.441-10.628,4.736-15.161-1.135-7.299-12.213-31.375-19.3-27.778-5.077,2.576-4.846,7.845-3.355,9.975,4.108,5.866,10.642,10.349,8.312,18.122-.014.049-1.412.388-1.762-.195-.758-1.264-1.487-2.424-2.375-2.715-5.406-1.782-15.828,4.832-14.328,8.097,1.708,3.727,8.271-1.63,9.602-.253,1.048,1.089,2.533,1.059,3.283-.234.342-.587.627-1.463-.025-2.539-.603-3.078-13.036,3.027-9.701,1.329,5.086-2.589,10.511-4.206,10.764-.117.229,3.675,2.301,5.212,3.967,4.825Z" fill="#ead244" stroke="#231f20" stroke-width=".471"/>
            </g>
            <g>
              <path d="M139.073,52.434c.847-3.645-9.829-4.28-6.643-10.181,3.968-7.35,10.628-5.441,15.161-4.736,7.299,1.135,31.375,12.213,27.778,19.3-2.576,5.077-7.845,4.846-9.975,3.355-5.866-4.108-10.349-10.642-18.122-8.312-.049.014-.388,1.412.195,1.762,1.264.758,2.424,1.487,2.715,2.375,1.782,5.406-4.832,15.828-8.097,14.328-3.727-1.708,1.63-8.271.253-9.602-1.089-1.048-1.059-2.533.234-3.283.587-.342,1.463-.627,2.539.025,3.078.603-3.027,13.036-1.329,9.701,2.589-5.086,4.206-10.511.117-10.764-3.675-.229-5.212-2.301-4.825-3.967Z" fill="#ead244" stroke="#231f20" stroke-width=".471"/>
              <path d="M178.484,74.417c2.733-2.556,8.621,6.372,12.138.663,4.381-7.111-.602-11.924-3.479-15.498-4.633-5.754-26.264-21.065-30.604-14.406-3.108,4.77-.274,9.217,2.082,10.316,6.49,3.026,14.39,3.641,16.26,11.538.012.049-1.029,1.043-1.623.712-1.288-.715-2.5-1.355-3.415-1.164-5.573,1.16-11.291,12.098-8.36,14.176,3.343,2.373,6.348-5.547,8.19-5.02,1.452.419,2.723-.349,2.726-1.844.002-.68-.188-1.58-1.291-2.186-2.062-2.364-9.776,9.139-7.736,6.001,3.111-4.785,7-8.898,9.263-5.483,2.036,3.068,4.599,3.363,5.848,2.195Z" fill="#ead244" stroke="#231f20" stroke-width=".471"/>
            </g>
          </g>
        </g>
      </g>
      <g id="M">
        <g id="highlight:flaviviridae_genome:M">
          <g id="css:colorshift-3" data-name="css:colorshift">
            <path d="M113.181,48.9c-2.28-.118,5.63,13.168-3.421,12.401-4.41-.374-.089-13.412-4.77-13.909-.857-.091-4.554.547-6.755.216-2.309-.346-2.524-2.376,1.346-3.996,3.638-1.523,9.737-2.05,10.177.216.287,1.481-3.143,2.354-2.855,2.406,4.793.864,2.381,12.907,4.367,12.562.907-.157-2.559-11.708.472-12.161,3.336-.652,1.959,2.289,1.439,2.266Z" fill="#f7941d" stroke="#231f20" stroke-width=".5"/>
            <path d="M115.12,48.949c2.274-.208-5.105,13.382,3.908,12.257,4.392-.549-.44-13.405,4.217-14.086.853-.124,4.573.366,6.758-.051,2.294-.438,2.429-2.475-1.503-3.942-3.695-1.378-9.81-1.662-10.16.618-.228,1.492,3.234,2.229,2.949,2.292-4.756,1.052-1.87,12.99-3.868,12.725-.913-.122,2.095-11.802-.952-12.135-3.359-.519-1.867,2.366-1.349,2.321Z" fill="#f7941d" stroke="#231f20" stroke-width=".5"/>
            <path d="M115.611,237.882c2.28.118-5.63-13.168,3.421-12.401,4.41.374.089,13.412,4.77,13.909.857.091,4.554-.547,6.755-.216,2.309.346,2.524,2.376-1.346,3.996-3.638,1.523-9.737,2.05-10.177-.216-.287-1.481,3.143-2.354,2.855-2.406-4.793-.864-2.381-12.907-4.367-12.562-.907.157,2.559,11.708-.472,12.161-3.336.652-1.959-2.289-1.439-2.266Z" fill="#f7941d" stroke="#231f20" stroke-width=".5"/>
            <path d="M113.672,237.833c-2.274.208,5.105-13.382-3.908-12.257-4.392.549.44,13.405-4.217,14.086-.853.124-4.573-.366-6.758.051-2.294.438-2.429,2.475,1.503,3.942,3.695,1.378,9.81,1.662,10.16-.618.228-1.492-3.234-2.229-2.949-2.292,4.756-1.052,1.87-12.99,3.868-12.725.913.122-2.095,11.802.952,12.135,3.359.519,1.867-2.366,1.349-2.321Z" fill="#f7941d" stroke="#231f20" stroke-width=".5"/>
            <path d="M195.274,191.12c1.308-1.871-14.151-2.201-8.706-9.471,2.654-3.542,11.423,7.029,14.324,3.323.531-.679,1.949-4.152,3.395-5.843,1.516-1.775,3.352-.882,2.676,3.259-.635,3.893-3.42,9.344-5.574,8.517-1.408-.541-.332-3.913-.528-3.697-3.272,3.608-12.208-4.818-12.968-2.951-.347.852,11.286,4.032,10.064,6.843-1.214,3.175-2.979.448-2.684.02Z" fill="#f7941d" stroke="#231f20" stroke-width=".5"/>
            <path d="M194.206,192.739c-1.028,2.039-8.645-11.419-12.466-3.178-1.862,4.016,11.603,6.728,9.713,11.039-.347.789-2.733,3.684-3.537,5.759-.843,2.178.812,3.372,4.14.813,3.127-2.404,6.607-7.44,4.859-8.944-1.144-.984-3.604,1.562-3.506,1.287,1.627-4.592-10.027-8.468-8.744-10.022.587-.71,8.9,8.029,10.796,5.621,2.219-2.574-1.018-2.837-1.254-2.374Z" fill="#f7941d" stroke="#231f20" stroke-width=".5"/>
            <path d="M195.169,97.753c-.967-2.069-8.981,11.155-12.555,2.804-1.741-4.069,11.799-6.378,10.04-10.744-.322-.799-2.622-3.764-3.363-5.862-.779-2.201.912-3.345,4.161-.688,3.054,2.497,6.382,7.634,4.589,9.086-1.173.949-3.555-1.67-3.465-1.391,1.489,4.638-10.277,8.163-9.039,9.755.565.727,9.135-7.758,10.958-5.295,2.143,2.639-1.101,2.804-1.324,2.334Z" fill="#f7941d" stroke="#231f20" stroke-width=".5"/>
            <path d="M196.037,99.487c1.252,1.91-14.212,1.778-8.986,9.207,2.547,3.62,11.628-6.685,14.416-2.892.51.695,1.824,4.209,3.219,5.943,1.464,1.819,3.326.982,2.774-3.178-.519-3.91-3.14-9.441-5.317-8.68-1.424.499-.449,3.902-.639,3.68-3.163-3.705-12.346,4.449-13.051,2.561-.321-.863,11.403-3.693,10.266-6.539-1.12-3.209-2.966-.537-2.683-.1Z" fill="#f7941d" stroke="#231f20" stroke-width=".5"/>
            <path d="M161.098,226.244c2.069-.967-11.155-8.981-2.804-12.555,4.069-1.741,6.378,11.799,10.744,10.04.799-.322,3.764-2.622,5.862-3.363,2.201-.779,3.345.912.688,4.161-2.497,3.054-7.634,6.382-9.086,4.589-.949-1.173,1.67-3.555,1.391-3.465-4.638,1.489-8.163-10.277-9.755-9.039-.727.565,7.758,9.135,5.295,10.958-2.639,2.143-2.804-1.101-2.334-1.324Z" fill="#f7941d" stroke="#231f20" stroke-width=".5"/>
            <path d="M159.364,227.112c-1.91,1.252-1.778-14.212-9.207-8.986-3.62,2.547,6.685,11.628,2.892,14.416-.695.51-4.209,1.824-5.943,3.219-1.819,1.464-.982,3.326,3.178,2.774,3.91-.519,9.441-3.14,8.68-5.317-.499-1.424-3.902-.449-3.68-.639,3.705-3.163-4.449-12.346-2.561-13.051.863-.321,3.693,11.403,6.539,10.266,3.209-1.12.537-2.966.1-2.683Z" fill="#f7941d" stroke="#231f20" stroke-width=".5"/>
            <path d="M208.466,145.698c.197-2.275-13.355,5.169-12.275-3.849.527-4.395,13.407.376,14.066-4.284.12-.853-.388-4.57.019-6.758.426-2.295,2.462-2.44,3.947,1.484,1.396,3.689,1.711,9.802-.569,10.163-1.49.236-2.244-3.223-2.306-2.937-1.03,4.761-12.982,1.931-12.706,3.929.126.912,11.79-2.151,12.137.894.536,3.357-2.356,1.878-2.314,1.359Z" fill="#f7941d" stroke="#231f20" stroke-width=".5"/>
            <path d="M208.35,147.634c.129,2.28-13.197-5.566-12.385,3.48.396,4.409,13.413.025,13.931,4.703.094.857-.525,4.557-.184,6.756.359,2.308,2.389,2.514,3.992-1.365,1.506-3.645,2.002-9.746-.265-10.175-1.483-.28-2.34,3.155-2.393,2.867-.887-4.79-12.917-2.32-12.583-4.308.154-.908,11.722,2.503,12.16-.53.635-3.339-2.3-1.948-2.273-1.428Z" fill="#f7941d" stroke="#231f20" stroke-width=".5"/>
            <path d="M158.545,61.968c-1.871-1.308-2.201,14.151-9.471,8.706-3.542-2.654,7.029-11.423,3.323-14.324-.679-.531-4.152-1.949-5.843-3.395-1.775-1.516-.882-3.352,3.259-2.676,3.893.635,9.344,3.42,8.517,5.574-.541,1.408-3.913.332-3.697.528,3.608,3.272-4.818,12.208-2.951,12.968.852.347,4.032-11.286,6.843-10.064,3.175,1.214.448,2.979.02,2.684Z" fill="#f7941d" stroke="#231f20" stroke-width=".5"/>
            <path d="M160.163,63.037c2.039,1.028-11.419,8.645-3.178,12.466,4.016,1.862,6.728-11.603,11.039-9.713.789.347,3.684,2.733,5.759,3.537,2.178.843,3.372-.812.813-4.14-2.404-3.127-7.44-6.607-8.944-4.859-.984,1.144,1.562,3.604,1.287,3.506-4.592-1.627-8.468,10.027-10.022,8.744-.71-.587,8.029-8.9,5.621-10.796-2.574-2.219-2.837,1.018-2.374,1.254Z" fill="#f7941d" stroke="#231f20" stroke-width=".5"/>
            <path d="M31.884,97.745c-1.308,1.871,14.151,2.201,8.706,9.471-2.654,3.542-11.423-7.029-14.324-3.323-.531.679-1.949,4.152-3.395,5.843-1.516,1.775-3.352.882-2.676-3.259.635-3.893,3.42-9.344,5.574-8.517,1.408.541.332,3.913.528,3.697,3.272-3.608,12.208,4.818,12.968,2.951.347-.852-11.286-4.032-10.064-6.843,1.214-3.175,2.979-.448,2.684-.02Z" fill="#f7941d" stroke="#231f20" stroke-width=".5"/>
            <path d="M32.952,96.127c1.028-2.039,8.645,11.419,12.466,3.178,1.862-4.016-11.603-6.728-9.713-11.039.347-.789,2.733-3.684,3.537-5.759.843-2.178-.812-3.372-4.14-.813-3.127,2.404-6.607,7.44-4.859,8.944,1.144.984,3.604-1.562,3.506-1.287-1.627,4.592,10.027,8.468,8.744,10.022-.587.71-8.9-8.029-10.796-5.621-2.219,2.574,1.018,2.837,1.254,2.374Z" fill="#f7941d" stroke="#231f20" stroke-width=".5"/>
            <path d="M32.059,189.638c.967,2.069,8.981-11.155,12.555-2.804,1.741,4.069-11.799,6.378-10.04,10.744.322.799,2.622,3.764,3.363,5.862.779,2.201-.912,3.345-4.161.688-3.054-2.497-6.382-7.634-4.589-9.086,1.173-.949,3.555,1.67,3.465,1.391-1.489-4.638,10.277-8.163,9.039-9.755-.565-.727-9.135,7.758-10.958,5.295-2.143-2.639,1.101-2.804,1.324-2.334Z" fill="#f7941d" stroke="#231f20" stroke-width=".5"/>
            <path d="M31.191,187.903c-1.252-1.91,14.212-1.778,8.986-9.207-2.547-3.62-11.628,6.685-14.416,2.892-.51-.695-1.824-4.209-3.219-5.943-1.464-1.819-3.326-.982-2.774,3.178.519,3.91,3.14,9.441,5.317,8.68,1.424-.499.449-3.902.639-3.68,3.163,3.705,12.346-4.449,13.051-2.561.321.863-11.403,3.693-10.266,6.539,1.12,3.209,2.966.537,2.683.1Z" fill="#f7941d" stroke="#231f20" stroke-width=".5"/>
            <path d="M66.06,62.621c-2.069.967,11.155,8.981,2.804,12.555-4.069,1.741-6.378-11.799-10.744-10.04-.799.322-3.764,2.622-5.862,3.363-2.201.779-3.345-.912-.688-4.161,2.497-3.054,7.634-6.382,9.086-4.589.949,1.173-1.67,3.555-1.391,3.465,4.638-1.489,8.163,10.277,9.755,9.039.727-.565-7.758-9.135-5.295-10.958,2.639-2.143,2.804,1.101,2.334,1.324Z" fill="#f7941d" stroke="#231f20" stroke-width=".5"/>
            <path d="M67.795,61.753c1.91-1.252,1.778,14.212,9.207,8.986,3.62-2.547-6.685-11.628-2.892-14.416.695-.51,4.209-1.824,5.943-3.219,1.819-1.464.982-3.326-3.178-2.774-3.91.519-9.441,3.14-8.68,5.317.499,1.424,3.902.449,3.68.639-3.705,3.163,4.449,12.346,2.561,13.051-.863.321-3.693-11.403-6.539-10.266-3.209,1.12-.537,2.966-.1,2.683Z" fill="#f7941d" stroke="#231f20" stroke-width=".5"/>
            <path d="M18.692,143.167c-.197,2.275,13.355-5.169,12.275,3.849-.527,4.395-13.407-.376-14.066,4.284-.12.853.388,4.57-.019,6.758-.426,2.295-2.462,2.44-3.947-1.484-1.396-3.689-1.711-9.802.569-10.163,1.49-.236,2.244,3.223,2.306,2.937,1.03-4.761,12.982-1.931,12.706-3.929-.126-.912-11.79,2.151-12.137-.894-.536-3.357,2.356-1.878,2.314-1.359Z" fill="#f7941d" stroke="#231f20" stroke-width=".5"/>
            <path d="M18.808,141.231c-.129-2.28,13.197,5.566,12.385-3.48-.396-4.409-13.413-.025-13.931-4.703-.094-.857.525-4.557.184-6.756-.359-2.308-2.389-2.514-3.992,1.365-1.506,3.645-2.002,9.746.265,10.175,1.483.28,2.34-3.155,2.393-2.867.887,4.79,12.917,2.32,12.583,4.308-.154.908-11.722-2.503-12.16.53-.635,3.339,2.3,1.948,2.273,1.428Z" fill="#f7941d" stroke="#231f20" stroke-width=".5"/>
            <path d="M68.614,226.897c1.871,1.308,2.201-14.151,9.471-8.706,3.542,2.654-7.029,11.423-3.323,14.324.679.531,4.152,1.949,5.843,3.395,1.775,1.516.882,3.352-3.259,2.676-3.893-.635-9.344-3.42-8.517-5.574.541-1.408,3.913-.332,3.697-.528-3.608-3.272,4.818-12.208,2.951-12.968-.852-.347-4.032,11.286-6.843,10.064-3.175-1.214-.448-2.979-.02-2.684Z" fill="#f7941d" stroke="#231f20" stroke-width=".5"/>
            <path d="M66.995,225.828c-2.039-1.028,11.419-8.645,3.178-12.466-4.016-1.862-6.728,11.603-11.039,9.713-.789-.347-3.684-2.733-5.759-3.537-2.178-.843-3.372.812-.813,4.14,2.404,3.127,7.44,6.607,8.944,4.859.984-1.144-1.562-3.604-1.287-3.506,4.592,1.627,8.468-10.027,10.022-8.744.71.587-8.029,8.9-5.621,10.796,2.574,2.219,2.837-1.018,2.374-1.254Z" fill="#f7941d" stroke="#231f20" stroke-width=".5"/>
          </g>
        </g>
      </g>
      <g id="text">
        <g>
          <path d="M12.32,20.108h-3.794v3.663h4.249v1.083h-5.522v-10.107h5.302v1.083h-4.029v3.209h3.794v1.068Z" fill="#231f20"/>
          <path d="M23.855,14.205v8.774c0,.698.021,1.323.062,1.875h-1.15l-.057-1.255h-.028c-.194.409-.495.742-.902,1-.407.268-.902.409-1.484.423-.861-.015-1.574-.361-2.137-1.04-.583-.659-.878-1.543-.888-2.651.029-1.23.344-2.185.946-2.864.611-.684,1.348-1.03,2.21-1.04.555.01,1.012.113,1.372.311.355.217.606.475.753.773h.028v-4.306h1.273ZM22.582,20.544c0-.191-.019-.383-.057-.574-.085-.432-.294-.793-.626-1.083-.333-.28-.741-.425-1.225-.435-.66.01-1.175.275-1.545.795-.38.516-.569,1.186-.569,2.01,0,.761.18,1.395.541,1.9.351.53.866.8,1.545.81.446,0,.84-.145,1.182-.435.175-.142.32-.309.434-.5.119-.191.207-.408.264-.648.038-.182.057-.373.057-.574v-1.267Z" fill="#231f20"/>
          <path d="M26.855,16.248c-.246,0-.436-.09-.568-.269-.157-.16-.234-.354-.234-.581,0-.247.078-.445.234-.595.142-.16.341-.24.596-.24.251,0,.45.08.597.24.142.15.213.348.213.595,0,.227-.071.421-.213.581-.147.179-.35.269-.611.269h-.014ZM26.244,24.854v-7.258h1.273v7.258h-1.273Z" fill="#231f20"/>
          <path d="M29.612,19.555c0-.736-.021-1.389-.062-1.959h1.151l.058,1.166h.044c.199-.36.483-.673.852-.941.369-.252.848-.384,1.436-.394.496.01.918.145,1.268.406.345.256.598.602.758,1.038h.029c.238-.407.512-.72.823-.938.219-.168.452-.296.7-.383.248-.082.542-.123.881-.123.257,0,.52.042.787.125.282.098.542.261.779.491.248.239.447.559.598.959.15.42.226.945.226,1.575v4.277h-1.245v-4.119c0-1.473-.532-2.22-1.597-2.239-.381.01-.71.125-.987.345-.272.23-.476.512-.609.844-.069.196-.104.417-.104.661v4.508h-1.244v-4.361c0-.602-.126-1.089-.378-1.461-.252-.347-.639-.526-1.159-.536-.406.01-.755.144-1.047.404-.297.269-.5.575-.609.917-.069.201-.104.416-.104.646v4.391h-1.245v-5.299Z" fill="#231f20"/>
          <path d="M42.979,21.448c.038.882.284,1.524.739,1.925.46.402,1.014.603,1.664.603.232,0,.445-.015.64-.044.194-.02.37-.044.526-.074.298-.073.559-.154.782-.242l.235.927c-.213.112-.518.211-.916.298-.388.097-.868.15-1.441.16-1.083-.01-1.926-.349-2.527-1.018-.62-.659-.93-1.538-.93-2.637,0-1.143.301-2.078.901-2.805.582-.742,1.386-1.118,2.413-1.128.582,0,1.055.11,1.419.33.378.229.674.52.887.872s.369.717.468,1.098c.076.4.114.774.114,1.121,0,.269-.014.479-.042.63l-4.931-.015ZM46.722,20.512c.029-.462-.082-.93-.334-1.402-.128-.221-.309-.403-.541-.546s-.529-.214-.89-.214c-.65.02-1.125.263-1.423.73-.157.211-.278.442-.363.693-.043.118-.078.239-.107.362-.028.123-.052.248-.071.376h3.729Z" fill="#231f20"/>
          <path d="M49.791,19.856c0-.848-.021-1.602-.062-2.26h1.121l.057,1.416h.042c.166-.496.428-.883.788-1.161.359-.282.752-.423,1.177-.423.123,0,.239.015.348.044v1.225c-.137-.016-.289-.024-.455-.024-.456,0-.828.156-1.117.469-.313.308-.512.713-.598,1.216-.028.19-.042.4-.042.63v3.868h-1.278l.019-4.999Z" fill="#231f20"/>
        </g>
        <g>
          <path d="M110.418,8.12c-.099-1.544-.154-3.001-.163-4.37h-.028c-.335,1.172-.747,2.452-1.233,3.838l-1.73,4.909h-.957l-1.595-4.82c-.463-1.426-.836-2.735-1.12-3.927h-.028c-.028,1.348-.09,2.837-.184,4.468l-.262,4.336h-1.206l.681-10.107h1.609l1.673,4.889c.406,1.231.735,2.368.985,3.408h.028c.26-1.011.609-2.147,1.049-3.408l1.737-4.889h1.616l.61,10.107h-1.248l-.234-4.435Z" fill="#231f20"/>
          <path d="M117.365,7.662c0-.908-.021-1.697-.061-2.366h1.149l.071,1.241h.028c.515-.93,1.345-1.399,2.49-1.409.88.01,1.596.347,2.149,1.011.549.659.828,1.553.837,2.681-.019,1.299-.344,2.273-.973,2.922-.62.654-1.361.981-2.223.981-.98-.015-1.702-.39-2.166-1.128h-.028v3.926h-1.273v-7.859ZM118.638,9.607c0,.187.019.366.057.538.128.461.36.834.697,1.119.351.29.754.435,1.209.435.692,0,1.221-.26,1.585-.78.37-.516.555-1.196.555-2.041,0-.761-.175-1.399-.526-1.915-.346-.521-.865-.786-1.558-.795-.445,0-.844.145-1.194.435-.355.29-.607.687-.754,1.193-.047.191-.071.373-.071.545v1.267Z" fill="#231f20"/>
          <path d="M125.912,7.556c0-.848-.021-1.602-.062-2.26h1.121l.057,1.416h.042c.166-.496.428-.883.788-1.161.359-.282.752-.423,1.177-.423.123,0,.239.015.348.044v1.225c-.137-.016-.289-.024-.455-.024-.456,0-.828.156-1.117.469-.313.308-.512.713-.598,1.216-.028.19-.042.4-.042.63v3.868h-1.278l.019-4.999Z" fill="#231f20"/>
          <path d="M133.574,12.723c-.97-.015-1.764-.356-2.384-1.025-.648-.659-.977-1.562-.986-2.71.01-1.23.353-2.18,1.029-2.849.648-.674,1.466-1.011,2.455-1.011,1.026.01,1.845.352,2.455,1.025.61.669.92,1.567.93,2.695-.019,1.343-.386,2.324-1.1,2.944-.71.62-1.505.93-2.385.93h-.014ZM133.617,11.742c.621-.01,1.135-.279,1.542-.809.388-.515.587-1.194.597-2.038,0-.662-.159-1.285-.476-1.868-.332-.588-.876-.895-1.634-.919-.734.024-1.277.321-1.627.89-.351.574-.526,1.221-.526,1.942,0,.814.199,1.478.597,1.993.389.529.893.799,1.514.809h.014Z" fill="#231f20"/>
          <path d="M140.486,3.553v1.743h1.835v.996h-1.835v3.936c-.025.932.295,1.402.96,1.412.327,0,.574-.029.74-.088l.057.991c-.25.106-.625.166-1.125.181-.599-.015-1.06-.2-1.38-.557-.34-.411-.505-1.046-.496-1.907v-3.967h-1.092v-.996h1.092v-1.333l1.244-.41Z" fill="#231f20"/>
          <path d="M144.544,9.148c.038.882.284,1.524.739,1.925.46.402,1.014.603,1.664.603.232,0,.445-.015.64-.044.194-.02.37-.044.526-.074.298-.073.559-.154.782-.242l.235.927c-.213.112-.518.211-.916.298-.388.097-.868.15-1.441.16-1.083-.01-1.926-.349-2.527-1.018-.62-.659-.93-1.538-.93-2.637,0-1.143.301-2.078.901-2.805.582-.742,1.386-1.118,2.413-1.128.582,0,1.055.11,1.419.33.378.229.674.52.887.872s.369.717.468,1.098c.076.4.114.774.114,1.121,0,.269-.014.479-.042.63l-4.931-.015ZM148.288,8.212c.029-.462-.082-.93-.334-1.402-.128-.221-.309-.403-.541-.546s-.529-.214-.89-.214c-.65.02-1.125.263-1.423.73-.157.211-.278.442-.363.693-.043.118-.078.239-.107.362-.028.123-.052.248-.071.376h3.729Z" fill="#231f20"/>
          <path d="M151.953,3.948c-.246,0-.436-.09-.568-.269-.157-.16-.234-.354-.234-.581,0-.247.078-.445.234-.595.142-.16.341-.24.596-.24.251,0,.45.08.597.24.142.15.213.348.213.595,0,.227-.071.421-.213.581-.147.179-.35.269-.611.269h-.014ZM151.342,12.555v-7.258h1.273v7.258h-1.273Z" fill="#231f20"/>
          <path d="M154.85,7.255c0-.736-.021-1.389-.061-1.959h1.135l.071,1.181h.028c.175-.36.461-.673.858-.941.397-.262.886-.398,1.468-.408.26,0,.532.042.815.125.279.098.544.256.795.476.255.22.463.535.624.945.166.4.249.916.249,1.545v4.336h-1.273v-4.192c0-.602-.116-1.113-.348-1.534-.251-.411-.679-.622-1.281-.631-.408.01-.764.139-1.067.389-.308.25-.526.57-.655.962-.057.181-.085.387-.085.617v4.391h-1.273v-5.299Z" fill="#231f20"/>
        </g>
        <g>
          <path d="M213.106,50.232c-.492.297-1.354.458-2.583.483-1.417-.015-2.577-.457-3.478-1.326-.916-.869-1.379-2.139-1.389-3.809.01-1.621.485-2.905,1.427-3.853.937-.962,2.176-1.448,3.718-1.458.614,0,1.113.051,1.499.152.399.097.678.196.835.297l-.319,1.052c-.473-.269-1.126-.408-1.958-.418-2.493.029-3.768,1.421-3.825,4.175.028,2.667,1.277,4.024,3.747,4.073.837,0,1.53-.139,2.079-.418l.249,1.048Z" fill="#231f20"/>
          <path d="M217.581,50.715c-.97-.015-1.764-.356-2.384-1.025-.648-.659-.977-1.562-.986-2.71.01-1.23.353-2.18,1.029-2.849.648-.674,1.466-1.011,2.455-1.011,1.026.01,1.845.352,2.455,1.025.61.669.92,1.567.93,2.695-.019,1.343-.386,2.324-1.1,2.944-.71.62-1.505.93-2.385.93h-.014ZM217.624,49.734c.621-.01,1.135-.279,1.542-.809.388-.515.587-1.194.597-2.038,0-.662-.159-1.285-.476-1.868-.332-.588-.876-.895-1.634-.919-.734.024-1.277.321-1.627.89-.351.574-.526,1.221-.526,1.942,0,.814.199,1.478.597,1.993.389.529.893.799,1.514.809h.014Z" fill="#231f20"/>
          <path d="M222.971,45.548c0-.848-.021-1.602-.062-2.26h1.121l.057,1.416h.042c.166-.496.428-.883.788-1.161.359-.282.752-.423,1.177-.423.123,0,.239.015.348.044v1.225c-.137-.016-.289-.024-.455-.024-.456,0-.828.156-1.117.469-.313.308-.512.713-.598,1.216-.028.19-.042.4-.042.63v3.868h-1.278l.019-4.999Z" fill="#231f20"/>
          <path d="M228.492,47.14c.038.882.284,1.524.739,1.925.46.402,1.014.603,1.664.603.232,0,.445-.015.64-.044.194-.02.37-.044.526-.074.298-.073.559-.154.782-.242l.235.927c-.213.112-.518.211-.916.298-.388.097-.868.15-1.441.16-1.083-.01-1.926-.349-2.527-1.018-.62-.659-.93-1.538-.93-2.637,0-1.143.301-2.078.901-2.805.582-.742,1.386-1.118,2.413-1.128.582,0,1.055.11,1.419.33.378.229.674.52.887.872s.369.717.468,1.098c.076.4.114.774.114,1.121,0,.269-.014.479-.042.63l-4.931-.015ZM232.236,46.204c.029-.462-.082-.93-.334-1.402-.128-.221-.309-.403-.541-.546s-.529-.214-.89-.214c-.65.02-1.125.263-1.423.73-.157.211-.278.442-.363.693-.043.118-.078.239-.107.362-.028.123-.052.248-.071.376h3.729Z" fill="#231f20"/>
          <path d="M238.469,45.654c0-.908-.021-1.697-.061-2.366h1.149l.071,1.241h.028c.515-.93,1.345-1.399,2.49-1.409.88.01,1.596.347,2.149,1.011.549.659.828,1.553.837,2.681-.019,1.299-.344,2.273-.973,2.922-.62.654-1.361.981-2.223.981-.98-.015-1.702-.39-2.166-1.128h-.028v3.926h-1.273v-7.859ZM239.742,47.599c0,.187.019.366.057.538.128.461.36.834.697,1.119.351.29.754.435,1.209.435.692,0,1.221-.26,1.585-.78.37-.516.555-1.196.555-2.041,0-.761-.175-1.399-.526-1.915-.346-.521-.865-.786-1.558-.795-.445,0-.844.145-1.194.435-.355.29-.607.687-.754,1.193-.047.191-.071.373-.071.545v1.267Z" fill="#231f20"/>
          <path d="M247.016,45.548c0-.848-.021-1.602-.062-2.26h1.121l.057,1.416h.042c.166-.496.428-.883.788-1.161.359-.282.752-.423,1.177-.423.123,0,.239.015.348.044v1.225c-.137-.016-.289-.024-.455-.024-.456,0-.828.156-1.117.469-.313.308-.512.713-.598,1.216-.028.19-.042.4-.042.63v3.868h-1.278l.019-4.999Z" fill="#231f20"/>
          <path d="M254.678,50.715c-.97-.015-1.764-.356-2.384-1.025-.648-.659-.977-1.562-.986-2.71.01-1.23.353-2.18,1.029-2.849.648-.674,1.467-1.011,2.455-1.011,1.026.01,1.845.352,2.455,1.025.61.669.92,1.567.93,2.695-.02,1.343-.386,2.324-1.101,2.944-.709.62-1.504.93-2.384.93h-.015ZM254.72,49.734c.621-.01,1.136-.279,1.543-.809.389-.515.587-1.194.597-2.038,0-.662-.158-1.285-.476-1.868-.332-.588-.877-.895-1.635-.919-.734.024-1.276.321-1.627.89-.352.574-.526,1.221-.526,1.942,0,.814.199,1.478.597,1.993.389.529.894.799,1.514.809h.014Z" fill="#231f20"/>
          <path d="M261.59,41.545v1.743h1.835v.996h-1.835v3.936c-.024.932.296,1.402.96,1.412.328,0,.574-.029.74-.088l.058.991c-.251.106-.626.166-1.126.181-.6-.015-1.06-.2-1.38-.557-.341-.411-.506-1.046-.496-1.907v-3.967h-1.092v-.996h1.092v-1.333l1.244-.41Z" fill="#231f20"/>
          <path d="M265.648,47.14c.038.882.284,1.524.739,1.925.459.402,1.014.603,1.663.603.232,0,.445-.015.64-.044.194-.02.37-.044.526-.074.298-.073.559-.154.781-.242l.234.927c-.213.112-.518.211-.915.298-.389.097-.869.15-1.441.16-1.084-.01-1.926-.349-2.527-1.018-.619-.659-.93-1.538-.93-2.637,0-1.143.301-2.078.901-2.805.582-.742,1.386-1.118,2.413-1.128.581,0,1.055.11,1.419.33.379.229.674.52.887.872s.369.717.469,1.098c.076.4.113.774.113,1.121,0,.269-.014.479-.042.63l-4.931-.015ZM269.392,46.204c.029-.462-.083-.93-.335-1.402-.128-.221-.309-.403-.541-.546s-.529-.214-.89-.214c-.65.02-1.125.263-1.424.73-.156.211-.277.442-.362.693-.043.118-.079.239-.107.362s-.052.248-.071.376h3.73Z" fill="#231f20"/>
          <path d="M273.057,41.94c-.247,0-.436-.09-.568-.269-.156-.16-.234-.354-.234-.581,0-.247.078-.445.234-.595.142-.16.341-.24.597-.24.251,0,.449.08.597.24.142.15.213.348.213.595,0,.227-.071.421-.213.581-.147.179-.351.269-.611.269h-.014ZM272.446,50.546v-7.258h1.273v7.258h-1.273Z" fill="#231f20"/>
          <path d="M275.955,45.247c0-.736-.021-1.389-.062-1.959h1.136l.07,1.181h.028c.175-.36.461-.673.858-.941.397-.262.887-.398,1.469-.408.26,0,.532.042.815.125.279.098.544.256.795.476.255.22.463.535.624.945.165.4.248.916.248,1.545v4.336h-1.272v-4.192c0-.602-.116-1.113-.349-1.534-.252-.411-.679-.622-1.281-.631-.407.01-.764.139-1.066.389-.309.25-.527.57-.655.962-.057.181-.085.387-.085.617v4.391h-1.273v-5.299Z" fill="#231f20"/>
        </g>
        <g>
          <g>
            <line x1="207.525" y1="54.155" x2="161.158" y2="78.218" fill="#fff"/>
            <path d="M159.533,80.216c1.697-.318,2.863-.405,4.286-.543l-2.324-4.478c-.317.419-1.674,1.987-2.912,3.191-1.324,1.29-2.58,2.353-3.443,2.949.984-.363,2.577-.778,4.393-1.119Z" fill="#fff"/>
          </g>
          <g>
            <line x1="207.525" y1="54.155" x2="161.158" y2="78.218" fill="none" stroke="#231f20"/>
            <path d="M159.533,80.216c1.697-.318,2.863-.405,4.286-.543l-2.324-4.478c-.317.419-1.674,1.987-2.912,3.191-1.324,1.29-2.58,2.353-3.443,2.949.984-.363,2.577-.778,4.393-1.119Z" fill="#231f20"/>
          </g>
        </g>
        <g>
          <g>
            <line x1="130.068" y1="19.506" x2="127.068" y2="39.555" fill="#fff"/>
            <path d="M127.731,42.042c.738-1.561,1.352-2.556,2.076-3.788l-4.989-.747c.153.503.626,2.521.875,4.23.267,1.829.391,3.47.366,4.518.284-1.009.882-2.542,1.672-4.213Z" fill="#fff"/>
          </g>
          <g>
            <line x1="130.068" y1="19.506" x2="127.068" y2="39.555" fill="none" stroke="#231f20"/>
            <path d="M127.731,42.042c.738-1.561,1.352-2.556,2.076-3.788l-4.989-.747c.153.503.626,2.521.875,4.23.267,1.829.391,3.47.366,4.518.284-1.009.882-2.542,1.672-4.213Z" fill="#231f20"/>
          </g>
        </g>
        <g>
          <line x1="42.91" y1="28.604" x2="51.41" y2="45.104" fill="none" stroke="#231f20"/>
          <path d="M53.402,46.735c-.314-1.698-.397-2.864-.53-4.288l-4.484,2.311c.418.319,1.981,1.68,3.182,2.921,1.286,1.328,2.346,2.587,2.938,3.452-.36-.985-.77-2.579-1.106-4.396Z" fill="#231f20"/>
        </g>
        <g>
          <path d="M208.146,248.995c-.278.107-.684.221-1.217.342-.519.126-1.118.194-1.797.204-1.477.01-2.694-.435-3.652-1.333-.916-.889-1.384-2.144-1.404-3.765.01-1.538.484-2.788,1.424-3.75.935-.972,2.232-1.462,3.894-1.472,1.177.034,1.998.19,2.463.467l-.318,1.059c-.25-.14-.55-.248-.899-.323-.344-.08-.764-.12-1.26-.12-2.562.049-3.871,1.408-3.927,4.076.056,2.688,1.314,4.052,3.772,4.091.831-.01,1.39-.1,1.678-.271v-3.025h-1.968v-1.039h3.212v4.859Z" fill="#231f20"/>
          <path d="M211.192,246.031c.038.882.284,1.524.739,1.925.46.402,1.014.603,1.664.603.232,0,.445-.015.64-.044.194-.02.37-.044.526-.074.298-.073.559-.154.782-.242l.235.927c-.213.112-.518.211-.916.298-.388.097-.868.15-1.441.16-1.083-.01-1.926-.349-2.527-1.018-.62-.659-.93-1.538-.93-2.637,0-1.143.301-2.078.901-2.805.582-.742,1.386-1.118,2.413-1.128.582,0,1.055.11,1.419.33.378.229.674.52.887.872s.369.717.468,1.098c.076.4.114.774.114,1.121,0,.269-.014.479-.042.63l-4.931-.015ZM214.936,245.095c.029-.462-.082-.93-.334-1.402-.128-.221-.309-.403-.541-.546s-.529-.214-.89-.214c-.65.02-1.125.263-1.423.73-.157.211-.278.442-.363.693-.043.118-.078.239-.107.362-.028.123-.052.248-.071.376h3.729Z" fill="#231f20"/>
          <path d="M217.99,244.138c0-.736-.021-1.389-.061-1.959h1.135l.071,1.181h.028c.175-.36.461-.673.858-.941.397-.262.886-.398,1.468-.408.26,0,.532.042.815.125.279.098.544.256.794.476.256.22.464.535.625.945.165.4.248.916.248,1.545v4.336h-1.273v-4.192c0-.602-.116-1.113-.348-1.534-.251-.411-.679-.622-1.281-.631-.408.01-.764.139-1.067.389-.308.25-.526.57-.655.962-.057.181-.085.387-.085.617v4.391h-1.273v-5.299Z" fill="#231f20"/>
          <path d="M229.175,249.606c-.97-.015-1.765-.356-2.384-1.025-.648-.659-.977-1.562-.986-2.71.01-1.23.353-2.18,1.029-2.849.647-.674,1.466-1.011,2.455-1.011,1.026.01,1.845.352,2.455,1.025.61.669.92,1.567.93,2.695-.02,1.343-.386,2.324-1.101,2.944-.709.62-1.504.93-2.384.93h-.015ZM229.218,248.625c.62-.01,1.135-.279,1.542-.809.389-.515.587-1.194.597-2.038,0-.662-.158-1.285-.476-1.868-.332-.588-.877-.895-1.635-.919-.734.024-1.277.321-1.628.89-.351.574-.525,1.221-.525,1.942,0,.814.198,1.478.597,1.993.389.529.894.799,1.514.809h.015Z" fill="#231f20"/>
          <path d="M234.41,244.138c0-.736-.021-1.389-.062-1.959h1.151l.059,1.166h.044c.199-.36.483-.673.853-.941.369-.252.848-.384,1.436-.394.495.01.918.145,1.268.406.345.256.597.602.758,1.038h.028c.238-.407.513-.72.824-.938.218-.168.451-.296.699-.383.247-.082.541-.123.881-.123.258,0,.521.042.787.125.282.098.542.261.78.491.247.239.446.559.597.959.151.42.227.945.227,1.575v4.277h-1.245v-4.119c0-1.473-.532-2.22-1.597-2.239-.382.01-.711.125-.988.345-.272.23-.475.512-.608.844-.069.196-.104.417-.104.661v4.508h-1.243v-4.361c0-.602-.127-1.089-.379-1.461-.253-.347-.639-.526-1.158-.536-.406.01-.756.144-1.048.404-.297.269-.5.575-.608.917-.069.201-.104.416-.104.646v4.391h-1.245v-5.299Z" fill="#231f20"/>
          <path d="M247.671,240.831c-.247,0-.436-.09-.568-.269-.156-.16-.234-.354-.234-.581,0-.247.078-.445.234-.595.142-.16.341-.24.597-.24.251,0,.449.08.597.24.142.15.213.348.213.595,0,.227-.071.421-.213.581-.147.179-.351.269-.611.269h-.014ZM247.06,249.437v-7.258h1.273v7.258h-1.273Z" fill="#231f20"/>
          <path d="M255.574,249.187c-.166.082-.424.167-.773.253-.171.039-.357.072-.561.101-.204.029-.434.05-.688.065-1.073-.015-1.919-.361-2.538-1.04-.628-.659-.947-1.553-.957-2.681.01-1.152.353-2.083,1.028-2.791.672-.713,1.586-1.074,2.744-1.084.795.02,1.386.15,1.773.392l-.291.994c-.146-.104-.341-.185-.582-.243-.251-.069-.551-.103-.901-.103-.804.01-1.419.275-1.845.795-.426.535-.639,1.193-.639,1.974.009.859.241,1.525.695,1.996.459.491,1.041.736,1.746.736.359,0,.669-.039.929-.118.261-.074.474-.15.639-.229l.221.981Z" fill="#231f20"/>
          <path d="M260.507,239.475c.696-.135,1.505-.208,2.428-.218,1.316,0,2.265.278,2.847.835.497.459.753,1.099.767,1.919-.014.659-.192,1.206-.536,1.641-.349.439-.784.747-1.307.923v.051c.728.288,1.207.967,1.438,2.036.312,1.431.56,2.356.744,2.776h-1.314c-.161-.322-.374-1.128-.64-2.417-.133-.698-.351-1.196-.653-1.494-.308-.312-.748-.469-1.321-.469h-1.193v4.38h-1.259v-9.963ZM261.766,244.077h1.296c1.447-.029,2.186-.671,2.214-1.927-.01-.652-.214-1.135-.612-1.449-.418-.289-.966-.434-1.645-.434-.612.01-1.03.049-1.253.118v3.692Z" fill="#231f20"/>
          <path d="M268.579,249.437v-10.107h1.391l3.13,5.117c.354.582.679,1.141.972,1.679.288.552.544,1.09.767,1.613l.042-.022c-.104-1.28-.15-2.661-.141-4.142v-4.245h1.185v10.107h-1.277l-3.115-5.132c-.705-1.144-1.311-2.27-1.818-3.379l-.044.015c.063,1.192.096,2.583.096,4.171v4.325h-1.186Z" fill="#231f20"/>
          <path d="M280.03,246.258l-1.013,3.179h-1.312l3.324-10.107h1.524l3.338,10.107h-1.347l-1.049-3.179h-3.467ZM283.234,245.248l-.971-2.916c-.193-.65-.356-1.265-.489-1.846h-.05c-.057.293-.123.588-.198.886-.09.312-.182.628-.276.945l-.957,2.93h2.941Z" fill="#231f20"/>
        </g>
        <g>
          <g>
            <line x1="161.243" y1="158.105" x2="237.243" y2="235.772" fill="#fff"/>
            <path d="M158.859,157.134c.8,1.531,1.222,2.621,1.77,3.941l3.605-3.528c-.493-.182-2.389-1.022-3.902-1.855-1.62-.891-3.003-1.782-3.824-2.434.635.835,1.496,2.238,2.351,3.876Z" fill="#fff"/>
          </g>
          <g>
            <line x1="161.243" y1="158.105" x2="237.243" y2="235.772" fill="none" stroke="#231f20"/>
            <path d="M158.859,157.134c.8,1.531,1.222,2.621,1.77,3.941l3.605-3.528c-.493-.182-2.389-1.022-3.902-1.855-1.62-.891-3.003-1.782-3.824-2.434.635.835,1.496,2.238,2.351,3.876Z" fill="#231f20"/>
          </g>
        </g>
        <g>
          <path d="M308.429,282.213h-3.378v-1.261h8.219v1.261h-3.397v10.194h-1.443v-10.194Z" fill="#231f20"/>
          <path d="M314.173,286.679v-1.011h8.499v1.011h-8.499ZM314.173,290.007v-1.011h8.499v1.011h-8.499Z" fill="#231f20"/>
          <path d="M324.756,290.72c.23.139.555.281.973.425.419.161.885.248,1.4.259.46,0,.849-.072,1.164-.217.321-.128.57-.3.748-.517.37-.456.539-.928.506-1.417-.032-.783-.316-1.353-.852-1.708-.541-.339-1.179-.509-1.913-.509h-.83v-1.11h.83c.57,0,1.101-.156,1.591-.469.229-.156.418-.354.567-.594.145-.229.216-.504.216-.828,0-.468-.142-.861-.426-1.179-.301-.318-.783-.482-1.449-.494-.429,0-.831.073-1.206.218-.387.162-.7.334-.942.519l-.394-1.088c.305-.234.707-.431,1.206-.589.493-.158,1.028-.243,1.607-.253,1.056.011,1.836.279,2.34.805.482.52.724,1.132.724,1.834-.011,1.201-.67,2.072-1.977,2.615v.033c.685.127,1.253.435,1.706.921.452.476.685,1.109.695,1.901,0,.908-.327,1.68-.98,2.316-.658.642-1.631.977-2.916,1.004-.606-.016-1.15-.101-1.633-.253-.493-.147-.881-.311-1.163-.491l.407-1.133Z" fill="#231f20"/>
          <path d="M336.941,287.287v1.077h-4.065v-1.077h4.065Z" fill="#231f20"/>
          <path d="M338.802,280.338h1.443v12.069h-1.443v-12.069Z" fill="#231f20"/>
          <path d="M343.47,282.653c-.279,0-.494-.101-.644-.304-.178-.181-.266-.4-.266-.658,0-.279.088-.504.266-.674.161-.181.386-.271.676-.271.284,0,.51.09.676.271.161.17.242.395.242.674,0,.258-.081.477-.242.658-.166.203-.396.304-.691.304h-.017ZM342.778,292.407v-8.226h1.443v8.226h-1.443Z" fill="#231f20"/>
          <path d="M348.197,287.949h.038c.22-.316.45-.626.691-.932l2.357-2.836h1.729l-3.081,3.378,3.507,4.848h-1.764l-2.738-3.959-.74.863v3.096h-1.443v-12.069h1.443v7.611Z" fill="#231f20"/>
          <path d="M355.652,288.546c.043,1,.322,1.727.838,2.183.521.455,1.148.683,1.885.683.263,0,.505-.017.725-.05.221-.022.419-.05.597-.083.338-.083.634-.175.886-.275l.266,1.05c-.241.126-.587.239-1.037.338-.44.11-.984.17-1.634.181-1.228-.011-2.183-.396-2.863-1.154-.703-.747-1.055-1.743-1.055-2.988,0-1.295.341-2.354,1.021-3.179.659-.841,1.571-1.267,2.734-1.278.66,0,1.196.125,1.608.374.43.26.765.589,1.006.987.241.398.418.813.53,1.245.086.454.129.877.129,1.27,0,.304-.016.542-.048.713l-5.588-.017ZM359.895,287.485c.033-.524-.094-1.054-.379-1.589-.146-.25-.35-.457-.613-.619s-.6-.243-1.009-.243c-.736.022-1.274.298-1.613.828-.178.24-.314.502-.411.786-.049.134-.089.271-.121.41s-.06.282-.081.426h4.228Z" fill="#231f20"/>
          <path d="M370.197,292.598c-1.099-.017-1.999-.404-2.701-1.162-.734-.747-1.107-1.771-1.118-3.071.011-1.395.399-2.471,1.166-3.229.734-.764,1.662-1.146,2.783-1.146,1.163.011,2.091.398,2.782,1.162.691.758,1.043,1.776,1.054,3.055-.021,1.522-.438,2.634-1.247,3.337-.805.703-1.705,1.054-2.702,1.054h-.017ZM370.246,291.487c.703-.011,1.286-.317,1.748-.917.439-.583.665-1.353.676-2.309,0-.75-.18-1.456-.539-2.117-.376-.667-.994-1.014-1.853-1.042-.833.028-1.447.364-1.845,1.009-.397.65-.596,1.384-.596,2.201,0,.922.226,1.675.676,2.259.44.6,1.013.906,1.716.917h.017Z" fill="#231f20"/>
          <path d="M376.305,286.742c0-.961-.023-1.815-.069-2.561h1.27l.064,1.604h.049c.188-.562.484-1.001.893-1.315.407-.32.852-.48,1.334-.48.14,0,.271.017.395.049v1.388c-.156-.018-.328-.027-.517-.027-.516,0-.938.177-1.266.531-.354.349-.581.809-.678,1.378-.032.216-.048.454-.048.714v4.383h-1.448l.021-5.665Z" fill="#231f20"/>
          <path d="M388.53,291.212c0,.938-.086,1.704-.258,2.299-.198.601-.49,1.086-.877,1.455-.408.353-.864.601-1.368.744-.516.16-1.03.24-1.546.24-.488,0-.969-.063-1.44-.189-.473-.099-.877-.262-1.216-.487l.363-1.148c.548.42,1.329.642,2.345.665.758,0,1.372-.227,1.846-.68.473-.453.715-1.188.726-2.204v-.903h-.033c-.209.385-.528.707-.958.965-.43.27-.956.404-1.578.404-1.005-.011-1.812-.401-2.425-1.17-.639-.742-.964-1.693-.975-2.855.011-1.405.384-2.484,1.119-3.237.702-.736,1.531-1.109,2.486-1.121.692.011,1.242.159,1.649.443.387.279.668.596.845.952h.032l.049-1.207,1.279.003c-.044.53-.065,1.276-.065,2.237v4.794ZM387.087,287.403c0-.239-.027-.461-.081-.667-.134-.456-.365-.836-.693-1.142-.344-.294-.79-.447-1.339-.458-.704,0-1.271.278-1.702.834-.451.556-.677,1.323-.677,2.301,0,.823.204,1.518.612,2.084.398.583.981.881,1.751.892.473,0,.892-.142,1.258-.425.35-.267.602-.645.758-1.134.075-.25.113-.517.113-.8v-1.484Z" fill="#231f20"/>
          <path d="M396.832,290.436c0,.74.039,1.396.118,1.971h-1.304l-.129-1.03h-.049c-.209.325-.522.605-.941.842-.419.236-.918.363-1.497.379-.815-.028-1.422-.279-1.819-.754-.413-.464-.62-1-.62-1.608.021-2.027,1.621-3.047,4.798-3.058v-.167c0-.185-.011-.391-.032-.62-.048-.218-.131-.424-.249-.62-.113-.207-.296-.377-.548-.511-.242-.128-.572-.187-.991-.176-.789.011-1.487.218-2.094.62l-.33-1.006c.702-.461,1.582-.697,2.639-.708.616,0,1.126.092,1.528.274.396.194.705.455.925.782.23.322.389.679.475,1.073.081.399.121.815.121,1.248v3.069ZM395.42,288.206c-.397-.022-.79-.011-1.178.034-.392.044-.761.136-1.104.275-.317.139-.581.328-.79.567-.21.25-.314.579-.314.985,0,.49.137.849.411,1.077.253.239.567.359.943.359.538,0,.974-.147,1.307-.442.328-.273.549-.584.661-.935.043-.161.064-.323.064-.484v-1.436Z" fill="#231f20"/>
          <path d="M399.414,286.401c0-.834-.022-1.574-.069-2.22h1.286l.081,1.338h.032c.198-.408.522-.763.973-1.066.45-.297,1.005-.452,1.664-.463.295,0,.603.047.925.141.315.111.616.291.9.54.289.249.524.606.707,1.071.188.454.281,1.038.281,1.751v4.914h-1.442v-4.751c0-.683-.132-1.262-.396-1.739-.285-.466-.769-.705-1.451-.716-.462.011-.865.158-1.21.441-.349.283-.597.646-.741,1.09-.064.205-.097.438-.097.699v4.976h-1.443v-6.006Z" fill="#231f20"/>
          <path d="M409.544,282.653c-.279,0-.494-.101-.644-.304-.178-.181-.266-.4-.266-.658,0-.279.088-.504.266-.674.161-.181.386-.271.676-.271.284,0,.51.09.676.271.161.17.242.395.242.674,0,.258-.081.477-.242.658-.166.203-.396.304-.691.304h-.017ZM408.852,292.407v-8.226h1.443v8.226h-1.443Z" fill="#231f20"/>
          <path d="M411.915,291.551l3.603-4.86c.343-.444.694-.876,1.054-1.298v-.034h-4.326v-1.178h6.071v.931l-3.686,4.804c-.327.443-.679.87-1.055,1.28v.033h4.812v1.178h-6.474v-.856Z" fill="#231f20"/>
          <path d="M425.71,290.436c0,.74.039,1.396.118,1.971h-1.304l-.129-1.03h-.049c-.209.325-.522.605-.941.842-.419.236-.918.363-1.497.379-.815-.028-1.422-.279-1.819-.754-.413-.464-.62-1-.62-1.608.021-2.027,1.621-3.047,4.798-3.058v-.167c0-.185-.011-.391-.032-.62-.048-.218-.131-.424-.249-.62-.113-.207-.296-.377-.548-.511-.242-.128-.572-.187-.991-.176-.789.011-1.487.218-2.094.62l-.33-1.006c.702-.461,1.582-.697,2.639-.708.616,0,1.126.092,1.528.274.396.194.705.455.925.782.23.322.389.679.475,1.073.081.399.121.815.121,1.248v3.069ZM424.298,288.206c-.397-.022-.79-.011-1.178.034-.392.044-.761.136-1.104.275-.317.139-.581.328-.79.567-.21.25-.314.579-.314.985,0,.49.137.849.411,1.077.253.239.567.359.943.359.538,0,.974-.147,1.307-.442.328-.273.549-.584.661-.935.043-.161.064-.323.064-.484v-1.436Z" fill="#231f20"/>
          <path d="M429.968,282.205v1.976h2.08v1.128h-2.08v4.46c-.028,1.056.335,1.59,1.089,1.601.37,0,.65-.034.838-.1l.064,1.123c-.283.12-.708.188-1.275.205-.679-.017-1.2-.227-1.564-.632-.385-.465-.572-1.186-.562-2.161v-4.497h-1.237v-1.128h1.237v-1.511l1.41-.465Z" fill="#231f20"/>
          <path d="M434.546,282.653c-.279,0-.494-.101-.644-.304-.178-.181-.266-.4-.266-.658,0-.279.088-.504.266-.674.161-.181.386-.271.676-.271.284,0,.51.09.676.271.161.17.242.395.242.674,0,.258-.081.477-.242.658-.166.203-.396.304-.691.304h-.017ZM433.854,292.407v-8.226h1.443v8.226h-1.443Z" fill="#231f20"/>
          <path d="M441.068,292.598c-1.099-.017-1.999-.404-2.701-1.162-.734-.747-1.107-1.771-1.118-3.071.011-1.395.399-2.471,1.166-3.229.734-.764,1.662-1.146,2.783-1.146,1.163.011,2.091.398,2.782,1.162.691.758,1.043,1.776,1.054,3.055-.021,1.522-.438,2.634-1.247,3.337-.805.703-1.705,1.054-2.702,1.054h-.017ZM441.117,291.487c.703-.011,1.286-.317,1.748-.917.439-.583.665-1.353.676-2.309,0-.75-.18-1.456-.539-2.117-.376-.667-.994-1.014-1.853-1.042-.833.028-1.447.364-1.845,1.009-.397.65-.596,1.384-.596,2.201,0,.922.226,1.675.676,2.259.44.6,1.013.906,1.716.917h.017Z" fill="#231f20"/>
          <path d="M447.16,286.401c0-.834-.022-1.574-.069-2.22h1.286l.081,1.338h.032c.198-.408.522-.763.973-1.066.45-.297,1.005-.452,1.664-.463.295,0,.603.047.925.141.315.111.616.291.9.54.289.249.524.606.707,1.071.188.454.281,1.038.281,1.751v4.914h-1.442v-4.751c0-.683-.132-1.262-.396-1.739-.285-.466-.769-.705-1.451-.716-.462.011-.865.158-1.21.441-.349.283-.597.646-.741,1.09-.064.205-.097.438-.097.699v4.976h-1.443v-6.006Z" fill="#231f20"/>
          <path d="M325.775,312.998c-1.099-.017-1.999-.404-2.701-1.162-.734-.747-1.107-1.771-1.118-3.071.011-1.395.399-2.471,1.166-3.229.734-.764,1.662-1.146,2.783-1.146,1.163.011,2.091.398,2.782,1.162.691.758,1.043,1.776,1.054,3.055-.021,1.522-.438,2.634-1.247,3.337-.805.703-1.705,1.054-2.702,1.054h-.017ZM325.824,311.887c.703-.011,1.286-.317,1.748-.917.439-.583.665-1.353.676-2.309,0-.75-.18-1.456-.539-2.117-.376-.667-.994-1.014-1.853-1.042-.833.028-1.447.364-1.845,1.009-.397.65-.596,1.384-.596,2.201,0,.922.226,1.675.676,2.259.44.6,1.013.906,1.716.917h.017Z" fill="#231f20"/>
          <path d="M332,312.807v-7.098h-1.103v-1.128h1.103v-.392c0-.594.078-1.141.233-1.641.14-.5.375-.914.707-1.241.579-.518,1.22-.772,1.922-.761.541.017.953.096,1.237.238l-.186,1.141c-.209-.111-.521-.173-.934-.184-.596.011-1.004.251-1.224.718-.23.468-.341,1.027-.33,1.679v.443h1.933v1.128h-1.916v7.098h-1.443Z" fill="#231f20"/>
          <path d="M340.23,311.311c.23.133.521.258.87.375.344.133.698.2,1.064.2.526,0,.916-.12,1.168-.358.242-.228.363-.516.363-.865,0-.355-.11-.652-.331-.891-.23-.227-.609-.435-1.136-.624-1.435-.561-2.145-1.34-2.128-2.338,0-.682.247-1.256.74-1.722.494-.455,1.164-.688,2.012-.699.832.011,1.478.182,1.939.512l-.347,1.066c-.14-.116-.355-.225-.646-.325-.274-.095-.604-.147-.991-.159-.425,0-.748.108-.968.324-.231.216-.347.485-.347.806,0,.327.12.593.362.798.253.216.631.421,1.137.615,1.386.465,2.084,1.293,2.095,2.485,0,.737-.257,1.333-.771,1.787-.514.449-1.245.682-2.193.698-.9-.016-1.645-.207-2.234-.572l.341-1.114Z" fill="#231f20"/>
          <path d="M353.83,310.57c0,.845.023,1.591.07,2.237h-1.286l-.081-1.338h-.031c-.178.341-.48.675-.908,1-.439.336-1.016.512-1.729.529-.306,0-.616-.058-.933-.174-.321-.111-.618-.299-.892-.564-.263-.271-.482-.645-.659-1.121-.177-.454-.266-1.038-.266-1.751v-4.806h1.443v4.552c0,.793.137,1.423.411,1.889.273.5.73.749,1.37.749.494-.011.905-.158,1.232-.441.322-.271.548-.585.678-.94.091-.216.137-.472.137-.766v-5.042h1.442v5.989Z" fill="#231f20"/>
          <path d="M356.545,307.142c0-.961-.023-1.815-.069-2.561h1.27l.064,1.604h.049c.188-.562.484-1.001.893-1.315.407-.32.852-.48,1.334-.48.14,0,.271.017.395.049v1.388c-.156-.018-.328-.027-.517-.027-.516,0-.938.177-1.266.531-.354.349-.581.809-.678,1.378-.032.216-.048.454-.048.714v4.383h-1.448l.021-5.665Z" fill="#231f20"/>
          <path d="M362.729,312.807v-7.098h-1.103v-1.128h1.103v-.392c0-.594.078-1.141.233-1.641.14-.5.375-.914.707-1.241.579-.518,1.22-.772,1.922-.761.541.017.953.096,1.237.238l-.186,1.141c-.209-.111-.521-.173-.934-.184-.596.011-1.004.251-1.224.718-.23.468-.341,1.027-.33,1.679v.443h1.933v1.128h-1.916v7.098h-1.443Z" fill="#231f20"/>
          <path d="M373.17,310.836c0,.74.039,1.396.118,1.971h-1.304l-.129-1.03h-.049c-.209.325-.522.605-.941.842-.419.236-.918.363-1.497.379-.815-.028-1.422-.279-1.819-.754-.413-.464-.62-1-.62-1.608.021-2.027,1.621-3.047,4.798-3.058v-.167c0-.185-.011-.391-.032-.62-.048-.218-.131-.424-.249-.62-.113-.207-.296-.377-.548-.511-.242-.128-.572-.187-.991-.176-.789.011-1.487.218-2.094.62l-.33-1.006c.702-.461,1.582-.697,2.639-.708.616,0,1.126.092,1.528.274.396.194.705.455.925.782.23.322.389.679.475,1.073.081.399.121.815.121,1.248v3.069ZM371.759,308.606c-.397-.022-.79-.011-1.178.034-.392.044-.761.136-1.104.275-.317.139-.581.328-.79.567-.21.25-.314.579-.314.985,0,.49.137.849.411,1.077.253.239.567.359.943.359.538,0,.974-.147,1.307-.442.328-.273.549-.584.661-.935.043-.161.064-.323.064-.484v-1.436Z" fill="#231f20"/>
          <path d="M381.425,312.523c-.188.093-.479.188-.877.287-.192.043-.404.082-.635.114s-.491.058-.78.074c-1.216-.017-2.175-.41-2.876-1.179-.713-.747-1.074-1.76-1.085-3.038.011-1.306.399-2.36,1.166-3.163.761-.808,1.797-1.217,3.11-1.229.899.022,1.569.17,2.009.444l-.329,1.126c-.167-.117-.387-.208-.66-.275-.284-.078-.625-.117-1.021-.117-.911.011-1.608.312-2.091.902-.482.606-.724,1.352-.724,2.237.011.974.273,1.728.788,2.262.52.557,1.18.835,1.979.835.407,0,.759-.045,1.054-.134.295-.083.536-.169.724-.259l.249,1.112Z" fill="#231f20"/>
          <path d="M384.078,308.946c.043,1,.322,1.727.838,2.183.521.455,1.148.683,1.885.683.263,0,.505-.017.725-.05.221-.022.419-.05.597-.083.338-.083.634-.175.886-.275l.266,1.05c-.241.126-.587.239-1.037.338-.44.11-.984.17-1.634.181-1.228-.011-2.183-.396-2.863-1.154-.703-.747-1.055-1.743-1.055-2.988,0-1.295.341-2.354,1.021-3.179.659-.841,1.571-1.267,2.734-1.278.66,0,1.196.125,1.608.374.43.26.765.589,1.006.987.241.398.418.813.53,1.245.086.454.129.877.129,1.27,0,.304-.016.542-.048.713l-5.588-.017ZM388.321,307.885c.033-.524-.094-1.054-.379-1.589-.146-.25-.35-.457-.613-.619s-.6-.243-1.009-.243c-.736.022-1.274.298-1.613.828-.178.24-.314.502-.411.786-.049.134-.089.271-.121.41s-.06.282-.081.426h4.228Z" fill="#231f20"/>
          <path d="M402.264,300.738v9.944c0,.792.023,1.5.071,2.125h-1.304l-.064-1.423h-.032c-.22.463-.561.841-1.021,1.134-.462.303-1.022.463-1.682.48-.977-.017-1.784-.41-2.423-1.179-.659-.747-.995-1.749-1.006-3.005.032-1.395.39-2.477,1.071-3.246.693-.775,1.528-1.167,2.506-1.179.629.011,1.146.128,1.555.352.403.246.688.538.854.876h.032v-4.88h1.442ZM400.822,307.922c0-.217-.021-.434-.064-.651-.097-.49-.334-.898-.71-1.227-.377-.317-.84-.481-1.388-.493-.748.011-1.332.312-1.751.902-.431.584-.646,1.344-.646,2.279,0,.862.204,1.58.613,2.153.397.601.981.907,1.75.918.506,0,.952-.164,1.34-.493.199-.161.363-.351.492-.567.135-.217.234-.462.299-.735.043-.206.064-.423.064-.651v-1.436Z" fill="#231f20"/>
          <path d="M405.665,303.053c-.279,0-.494-.101-.644-.304-.178-.181-.266-.4-.266-.658,0-.279.088-.504.266-.674.161-.181.386-.271.676-.271.284,0,.51.09.676.271.161.17.242.395.242.674,0,.258-.081.477-.242.658-.166.203-.396.304-.691.304h-.017ZM404.972,312.807v-8.226h1.443v8.226h-1.443Z" fill="#231f20"/>
          <path d="M408.789,306.801c0-.834-.023-1.574-.069-2.22h1.305l.066,1.321h.049c.227-.408.548-.763.967-1.066.418-.287.96-.435,1.626-.446.562.011,1.041.165,1.438.46.391.291.677.683.858,1.176h.033c.27-.461.581-.816.933-1.063.248-.191.513-.335.793-.434.281-.093.614-.139.999-.139.292,0,.59.047.892.141.319.111.614.296.884.556.281.271.507.634.678,1.087.17.476.256,1.071.256,1.785v4.848h-1.411v-4.668c0-1.67-.604-2.516-1.81-2.538-.433.011-.806.142-1.119.391-.309.261-.539.58-.69.957-.079.222-.118.472-.118.749v5.109h-1.409v-4.942c0-.683-.144-1.234-.43-1.656-.286-.394-.724-.596-1.312-.607-.46.011-.855.164-1.187.458-.337.305-.567.652-.69,1.04-.079.228-.118.471-.118.732v4.976h-1.411v-6.006Z" fill="#231f20"/>
          <path d="M423.938,308.946c.043,1,.322,1.727.838,2.183.521.455,1.148.683,1.885.683.263,0,.505-.017.725-.05.221-.022.419-.05.597-.083.338-.083.634-.175.886-.275l.266,1.05c-.241.126-.587.239-1.037.338-.44.11-.984.17-1.634.181-1.228-.011-2.183-.396-2.863-1.154-.703-.747-1.055-1.743-1.055-2.988,0-1.295.341-2.354,1.021-3.179.659-.841,1.571-1.267,2.734-1.278.66,0,1.196.125,1.608.374.43.26.765.589,1.006.987.241.398.418.813.53,1.245.086.454.129.877.129,1.27,0,.304-.016.542-.048.713l-5.588-.017ZM428.181,307.885c.033-.524-.094-1.054-.379-1.589-.146-.25-.35-.457-.613-.619s-.6-.243-1.009-.243c-.736.022-1.274.298-1.613.828-.178.24-.314.502-.411.786-.049.134-.089.271-.121.41s-.06.282-.081.426h4.228Z" fill="#231f20"/>
          <path d="M431.659,307.142c0-.961-.023-1.815-.069-2.561h1.27l.064,1.604h.049c.188-.562.484-1.001.893-1.315.407-.32.852-.48,1.334-.48.14,0,.271.017.395.049v1.388c-.156-.018-.328-.027-.517-.027-.516,0-.938.177-1.266.531-.354.349-.581.809-.678,1.378-.032.216-.048.454-.048.714v4.383h-1.448l.021-5.665Z" fill="#231f20"/>
          <path d="M437.001,311.311c.23.133.521.258.87.375.344.133.698.2,1.064.2.526,0,.916-.12,1.168-.358.242-.228.363-.516.363-.865,0-.355-.11-.652-.331-.891-.23-.227-.609-.435-1.136-.624-1.435-.561-2.145-1.34-2.128-2.338,0-.682.247-1.256.74-1.722.494-.455,1.164-.688,2.012-.699.832.011,1.478.182,1.939.512l-.347,1.066c-.14-.116-.355-.225-.646-.325-.274-.095-.604-.147-.991-.159-.425,0-.748.108-.968.324-.231.216-.347.485-.347.806,0,.327.12.593.362.798.253.216.631.421,1.137.615,1.386.465,2.084,1.293,2.095,2.485,0,.737-.257,1.333-.771,1.787-.514.449-1.245.682-2.193.698-.9-.016-1.645-.207-2.234-.572l.341-1.114Z" fill="#231f20"/>
        </g>
      </g>
    </g>
  </g>
</svg>